<svg width="16" height="16" viewBox="0 0 16 16" fill="none" xmlns="http://www.w3.org/2000/svg">
<path d="M8 0.5C4.55 0.5 1.75 3.3 1.75 6.75C1.75 10.2 4.55 13 8 13C11.45 13 14.25 10.2 14.25 6.75C14.25 3.3 11.45 0.5 8 0.5ZM8 11.75C5.25 11.75 3 9.5 3 6.75C3 4 5.25 1.75 8 1.75C10.75 1.75 13 4 13 6.75C13 9.5 10.75 11.75 8 11.75Z" fill="white"/>
<path d="M6.34998 4.825C6.57498 4.575 6.84998 4.375 7.17498 4.25C7.49998 4.1 7.82498 4.025 8.17498 4.025C8.59998 4.025 9.02498 4.125 9.37498 4.35C9.72498 4.55 10.05 4.85 10.275 5.175L11.175 4.5C10.825 4.05 10.4 3.65 9.89998 3.4C9.37498 3.125 8.82498 3 8.19998 3C7.69998 3 7.19998 3.1 6.74998 3.3C6.29998 3.5 5.89998 3.775 5.57498 4.1C5.24998 4.45 4.97498 4.825 4.77498 5.3C4.57498 5.75 4.47498 6.25 4.47498 6.75C4.47498 7.275 4.57498 7.75 4.77498 8.2C4.97498 8.65 5.22498 9.05 5.57498 9.4C5.89998 9.75 6.29998 10 6.74998 10.2C7.19998 10.4 7.67498 10.5 8.19998 10.5C8.82498 10.5 9.39998 10.375 9.89998 10.1C10.4 9.825 10.85 9.45 11.175 9L10.275 8.325C10.05 8.675 9.74998 8.95 9.37498 9.15C8.99998 9.35 8.59998 9.45 8.17498 9.45C7.82498 9.45 7.49998 9.375 7.17498 9.225C6.87498 9.075 6.59998 8.875 6.34998 8.65C6.12498 8.4 5.92498 8.125 5.79998 7.8C5.67498 7.475 5.59998 7.125 5.59998 6.75C5.59998 6.375 5.67498 6.025 5.79998 5.7C5.92498 5.375 6.12498 5.075 6.34998 4.825Z" fill="white"/>
</svg>
