<svg width="32" height="32" viewBox="0 0 32 32" fill="none" xmlns="http://www.w3.org/2000/svg">
<path d="M25.3334 18.6666V7.99992C25.3334 6.53325 24.1334 5.33325 22.6667 5.33325H4.00004C2.53337 5.33325 1.33337 6.53325 1.33337 7.99992V18.6666C1.33337 20.1333 2.53337 21.3333 4.00004 21.3333H22.6667C24.1334 21.3333 25.3334 20.1333 25.3334 18.6666ZM22.6667 18.6666H4.00004V7.99992H22.6667V18.6666ZM13.3334 9.33325C11.12 9.33325 9.33337 11.1199 9.33337 13.3333C9.33337 15.5466 11.12 17.3333 13.3334 17.3333C15.5467 17.3333 17.3334 15.5466 17.3334 13.3333C17.3334 11.1199 15.5467 9.33325 13.3334 9.33325ZM30.6667 9.33325V23.9999C30.6667 25.4666 29.4667 26.6666 28 26.6666H5.33337V23.9999H28V9.33325H30.6667Z" fill="white"/>
</svg>
