<svg width="32" height="32" viewBox="0 0 32 32" fill="none" xmlns="http://www.w3.org/2000/svg">
<path d="M16 1C10.4865 1 6 4.9445 6 9.793C6 12.358 7.684 14.999 9.3105 17.551C10.712 19.7475 12.0505 21.844 12.4685 24H19.531C19.95 21.8435 21.287 19.747 22.688 17.551C24.3155 14.999 26 12.358 26 9.793C26 4.9445 21.5135 1 16 1ZM16 14.837C16.966 15.8795 17.876 16.1895 18.292 16.2815C18.2295 16.559 18.173 16.83 18.1075 17.097C17.9845 17.643 17.8645 18.175 17.748 18.686C17.4234 20.1222 17.1075 21.5604 16.8005 23.0005H15.199C14.8912 21.5606 14.5754 20.1224 14.2515 18.686L13.891 17.097C13.8255 16.83 13.769 16.559 13.7075 16.2815C14.124 16.1895 15.034 15.8795 16 14.837ZM15.7305 13.7455C15.635 13.539 15.6005 13.328 15.6985 13.1725C15.7805 13.049 15.889 12.9785 16.0005 12.9785C16.112 12.9785 16.2195 13.049 16.3025 13.1725C16.4 13.328 16.366 13.5385 16.2705 13.7455C16.2 13.8915 16.1035 14.0305 16 14.165C15.8954 14.0352 15.8051 13.8946 15.7305 13.7455ZM21.8455 17.0125C20.554 19.037 19.326 20.9615 18.744 23H17.121C17.4808 21.5911 17.833 20.1802 18.1775 18.7675C18.3005 18.257 18.4305 17.7285 18.563 17.1835C18.637 16.8935 18.7025 16.5945 18.775 16.297C19.153 16.2715 19.5145 16.1535 19.7965 15.895C20.0855 15.6105 20.236 15.2385 20.1685 14.8415C20.138 14.6515 19.9955 14.4055 19.7205 14.3215C19.586 14.2761 19.4409 14.2728 19.3045 14.312C19.1909 14.3541 19.0886 14.4218 19.0055 14.51C18.739 14.806 18.642 15.1015 18.533 15.3945C18.482 15.542 18.44 15.6895 18.4 15.835C18.4 15.835 17.975 15.8675 17.066 15.256C16.561 14.9165 16.4155 14.671 16.269 14.5085C16.427 14.333 16.5785 14.1405 16.696 13.907C16.7585 13.7765 16.811 13.635 16.829 13.476C16.847 13.317 16.8175 13.137 16.7265 12.982C16.6294 12.8101 16.4769 12.6762 16.294 12.602C16.203 12.5695 16.1015 12.554 16 12.554C15.8985 12.554 15.796 12.569 15.706 12.602C15.5229 12.6763 15.3702 12.8102 15.2725 12.982C15.1815 13.1375 15.1525 13.317 15.17 13.476C15.1902 13.6262 15.2355 13.7719 15.304 13.907C15.421 14.1405 15.5725 14.3335 15.731 14.5085C15.5845 14.671 15.438 14.9165 14.933 15.256C14.024 15.868 13.599 15.835 13.599 15.835C13.5598 15.6868 13.5158 15.5399 13.467 15.3945C13.3565 15.1015 13.261 14.806 12.9945 14.51C12.9115 14.4217 12.8092 14.354 12.6955 14.312C12.5591 14.2728 12.414 14.2761 12.2795 14.3215C12.003 14.4055 11.8615 14.6515 11.8315 14.8415C11.763 15.2385 11.9145 15.6105 12.2035 15.895C12.4865 16.1535 12.847 16.2715 13.225 16.297C13.2965 16.595 13.3615 16.8935 13.437 17.1835L13.8225 18.7675C14.1673 20.1802 14.5195 21.591 14.879 23H13.256C12.675 20.9635 11.4465 19.039 10.1515 17.0105C8.602 14.579 7 12.065 7 9.793C7 5.496 11.037 2 16 2C20.9625 2 25 5.496 25 9.793C25 12.066 23.3965 14.5805 21.8455 17.0125ZM18.8995 15.832C18.929 15.7295 18.959 15.6255 18.994 15.5255C19.0885 15.262 19.209 14.9755 19.373 14.804C19.412 14.76 19.452 14.7425 19.4725 14.731C19.4725 14.733 19.5215 14.725 19.5525 14.7405C19.608 14.7545 19.661 14.812 19.6815 14.9225C19.7215 15.1365 19.62 15.412 19.4365 15.5845C19.3075 15.707 19.1085 15.793 18.8995 15.832ZM13.0995 15.832C12.8905 15.793 12.6915 15.707 12.5635 15.584C12.379 15.4115 12.2785 15.136 12.3185 14.922C12.339 14.811 12.3915 14.754 12.4475 14.74C12.479 14.725 12.5275 14.7325 12.5275 14.7305C12.547 14.742 12.588 14.76 12.625 14.8035C12.79 14.9755 12.91 15.2615 13.005 15.525C13.04 15.6255 13.0705 15.7295 13.0995 15.832ZM13.26 24.7785H12.76V26.5785H13.144V28.179H13.528V29.7795H14.171C14.4735 30.494 15.1735 31 16 31C16.826 31 17.5255 30.494 17.829 29.7785H18.4925V28.168L18.5485 28.1475L18.876 28.0275V26.566L18.9085 26.5555L19.259 26.4455V24.778H13.26V24.7785Z" fill="white"/>
</svg>
