<svg width="82" height="58" viewBox="0 0 82 58" fill="none" xmlns="http://www.w3.org/2000/svg">
<path d="M41 27.2001C42.7674 27.2001 44.2 25.7674 44.2 24C44.2 22.2327 42.7674 20.8 41 20.8C39.2327 20.8 37.8 22.2327 37.8 24C37.8 25.7674 39.2327 27.2001 41 27.2001Z" fill="white"/>
<path d="M26.6 11.8399C28.4017 9.62669 30.6176 7.8541 33.1004 6.63994C35.5831 5.42579 38.276 4.79785 41 4.79785C43.724 4.79785 46.4168 5.42579 48.8996 6.63994C51.3823 7.8541 53.5982 9.62669 55.4 11.8399L53 14.0799C51.4985 12.1902 49.652 10.6766 47.583 9.63995C45.514 8.60324 43.27 8.06708 41 8.06708C38.73 8.06708 36.4859 8.60324 34.417 9.63995C32.348 10.6766 30.5014 12.1902 29 14.0799L26.6 11.8399ZM32.52 16.9599C33.5713 15.6605 34.882 14.6161 36.3605 13.8997C37.839 13.1833 39.4497 12.8121 41.08 12.8121C42.7103 12.8121 44.3209 13.1833 45.7994 13.8997C47.2779 14.6161 48.5886 15.6605 49.64 16.9599L47.4 19.1999C46.6504 18.2095 45.7005 17.4102 44.6205 16.861C43.5405 16.3117 42.3579 16.0266 41.16 16.0266C39.9621 16.0266 38.7795 16.3117 37.6995 16.861C36.6195 17.4102 35.6696 18.2095 34.92 19.1999L32.52 16.9599Z" fill="white"/>
<path d="M3.576 53.084C3.024 53.084 2.528 52.988 2.088 52.796C1.656 52.596 1.316 52.324 1.068 51.98C0.82 51.628 0.692 51.224 0.684 50.768H1.848C1.888 51.16 2.048 51.492 2.328 51.764C2.616 52.028 3.032 52.16 3.576 52.16C4.096 52.16 4.504 52.032 4.8 51.776C5.104 51.512 5.256 51.176 5.256 50.768C5.256 50.448 5.168 50.188 4.992 49.988C4.816 49.788 4.596 49.636 4.332 49.532C4.068 49.428 3.712 49.316 3.264 49.196C2.712 49.052 2.268 48.908 1.932 48.764C1.604 48.62 1.32 48.396 1.08 48.092C0.848 47.78 0.732 47.364 0.732 46.844C0.732 46.388 0.848 45.984 1.08 45.632C1.312 45.28 1.636 45.008 2.052 44.816C2.476 44.624 2.96 44.528 3.504 44.528C4.288 44.528 4.928 44.724 5.424 45.116C5.928 45.508 6.212 46.028 6.276 46.676H5.076C5.036 46.356 4.868 46.076 4.572 45.836C4.276 45.588 3.884 45.464 3.396 45.464C2.94 45.464 2.568 45.584 2.28 45.824C1.992 46.056 1.848 46.384 1.848 46.808C1.848 47.112 1.932 47.36 2.1 47.552C2.276 47.744 2.488 47.892 2.736 47.996C2.992 48.092 3.348 48.204 3.804 48.332C4.356 48.484 4.8 48.636 5.136 48.788C5.472 48.932 5.76 49.16 6 49.472C6.24 49.776 6.36 50.192 6.36 50.72C6.36 51.128 6.252 51.512 6.036 51.872C5.82 52.232 5.5 52.524 5.076 52.748C4.652 52.972 4.152 53.084 3.576 53.084ZM15.875 46.304C16.387 46.304 16.843 46.412 17.243 46.628C17.643 46.836 17.959 47.152 18.191 47.576C18.423 48 18.539 48.516 18.539 49.124V53H17.459V49.28C17.459 48.624 17.295 48.124 16.967 47.78C16.647 47.428 16.211 47.252 15.659 47.252C15.091 47.252 14.639 47.436 14.303 47.804C13.967 48.164 13.799 48.688 13.799 49.376V53H12.719V49.28C12.719 48.624 12.555 48.124 12.227 47.78C11.907 47.428 11.471 47.252 10.919 47.252C10.351 47.252 9.89897 47.436 9.56297 47.804C9.22697 48.164 9.05897 48.688 9.05897 49.376V53H7.96697V46.424H9.05897V47.372C9.27497 47.028 9.56297 46.764 9.92297 46.58C10.291 46.396 10.695 46.304 11.135 46.304C11.687 46.304 12.175 46.428 12.599 46.676C13.023 46.924 13.339 47.288 13.547 47.768C13.731 47.304 14.035 46.944 14.459 46.688C14.883 46.432 15.355 46.304 15.875 46.304ZM19.9223 49.688C19.9223 49.016 20.0583 48.428 20.3303 47.924C20.6023 47.412 20.9743 47.016 21.4463 46.736C21.9263 46.456 22.4583 46.316 23.0423 46.316C23.6183 46.316 24.1183 46.44 24.5423 46.688C24.9663 46.936 25.2823 47.248 25.4903 47.624V46.424H26.5943V53H25.4903V51.776C25.2743 52.16 24.9503 52.48 24.5183 52.736C24.0943 52.984 23.5983 53.108 23.0303 53.108C22.4463 53.108 21.9183 52.964 21.4463 52.676C20.9743 52.388 20.6023 51.984 20.3303 51.464C20.0583 50.944 19.9223 50.352 19.9223 49.688ZM25.4903 49.7C25.4903 49.204 25.3903 48.772 25.1903 48.404C24.9903 48.036 24.7183 47.756 24.3743 47.564C24.0383 47.364 23.6663 47.264 23.2583 47.264C22.8503 47.264 22.4783 47.36 22.1423 47.552C21.8063 47.744 21.5383 48.024 21.3383 48.392C21.1383 48.76 21.0383 49.192 21.0383 49.688C21.0383 50.192 21.1383 50.632 21.3383 51.008C21.5383 51.376 21.8063 51.66 22.1423 51.86C22.4783 52.052 22.8503 52.148 23.2583 52.148C23.6663 52.148 24.0383 52.052 24.3743 51.86C24.7183 51.66 24.9903 51.376 25.1903 51.008C25.3903 50.632 25.4903 50.196 25.4903 49.7ZM29.5316 47.492C29.7236 47.116 29.9956 46.824 30.3476 46.616C30.7076 46.408 31.1436 46.304 31.6556 46.304V47.432H31.3676C30.1436 47.432 29.5316 48.096 29.5316 49.424V53H28.4396V46.424H29.5316V47.492ZM34.2482 47.324V51.2C34.2482 51.52 34.3162 51.748 34.4522 51.884C34.5882 52.012 34.8242 52.076 35.1602 52.076H35.9642V53H34.9802C34.3722 53 33.9162 52.86 33.6122 52.58C33.3082 52.3 33.1562 51.84 33.1562 51.2V47.324H32.3042V46.424H33.1562V44.768H34.2482V46.424H35.9642V47.324H34.2482ZM46.9305 44.636V53H45.8385V49.208H41.5785V53H40.4865V44.636H41.5785V48.308H45.8385V44.636H46.9305ZM51.6631 53.108C51.0471 53.108 50.4871 52.968 49.9831 52.688C49.4871 52.408 49.0951 52.012 48.8071 51.5C48.5271 50.98 48.3871 50.38 48.3871 49.7C48.3871 49.028 48.5311 48.436 48.8191 47.924C49.1151 47.404 49.5151 47.008 50.0191 46.736C50.5231 46.456 51.0871 46.316 51.7111 46.316C52.3351 46.316 52.8991 46.456 53.4031 46.736C53.9071 47.008 54.3031 47.4 54.5911 47.912C54.8871 48.424 55.0351 49.02 55.0351 49.7C55.0351 50.38 54.8831 50.98 54.5791 51.5C54.2831 52.012 53.8791 52.408 53.3671 52.688C52.8551 52.968 52.2871 53.108 51.6631 53.108ZM51.6631 52.148C52.0551 52.148 52.4231 52.056 52.7671 51.872C53.1111 51.688 53.3871 51.412 53.5951 51.044C53.8111 50.676 53.9191 50.228 53.9191 49.7C53.9191 49.172 53.8151 48.724 53.6071 48.356C53.3991 47.988 53.1271 47.716 52.7911 47.54C52.4551 47.356 52.0911 47.264 51.6991 47.264C51.2991 47.264 50.9311 47.356 50.5951 47.54C50.2671 47.716 50.0031 47.988 49.8031 48.356C49.6031 48.724 49.5031 49.172 49.5031 49.7C49.5031 50.236 49.5991 50.688 49.7911 51.056C49.9911 51.424 50.2551 51.7 50.5831 51.884C50.9111 52.06 51.2711 52.148 51.6631 52.148ZM64.3789 46.304C64.8909 46.304 65.3469 46.412 65.7469 46.628C66.1469 46.836 66.4629 47.152 66.6949 47.576C66.9269 48 67.0429 48.516 67.0429 49.124V53H65.9629V49.28C65.9629 48.624 65.7989 48.124 65.4709 47.78C65.1509 47.428 64.7149 47.252 64.1629 47.252C63.5949 47.252 63.1429 47.436 62.8069 47.804C62.4709 48.164 62.3029 48.688 62.3029 49.376V53H61.2229V49.28C61.2229 48.624 61.0589 48.124 60.7309 47.78C60.4109 47.428 59.9749 47.252 59.4229 47.252C58.8549 47.252 58.4029 47.436 58.0669 47.804C57.7309 48.164 57.5629 48.688 57.5629 49.376V53H56.4709V46.424H57.5629V47.372C57.7789 47.028 58.0669 46.764 58.4269 46.58C58.7949 46.396 59.1989 46.304 59.6389 46.304C60.1909 46.304 60.6789 46.428 61.1029 46.676C61.5269 46.924 61.8429 47.288 62.0509 47.768C62.2349 47.304 62.5389 46.944 62.9629 46.688C63.3869 46.432 63.8589 46.304 64.3789 46.304ZM74.8342 49.46C74.8342 49.668 74.8222 49.888 74.7982 50.12H69.5422C69.5822 50.768 69.8022 51.276 70.2022 51.644C70.6102 52.004 71.1022 52.184 71.6782 52.184C72.1502 52.184 72.5422 52.076 72.8542 51.86C73.1742 51.636 73.3982 51.34 73.5262 50.972H74.7022C74.5262 51.604 74.1742 52.12 73.6462 52.52C73.1182 52.912 72.4622 53.108 71.6782 53.108C71.0542 53.108 70.4942 52.968 69.9982 52.688C69.5102 52.408 69.1262 52.012 68.8462 51.5C68.5662 50.98 68.4262 50.38 68.4262 49.7C68.4262 49.02 68.5622 48.424 68.8342 47.912C69.1062 47.4 69.4862 47.008 69.9742 46.736C70.4702 46.456 71.0382 46.316 71.6782 46.316C72.3022 46.316 72.8542 46.452 73.3342 46.724C73.8142 46.996 74.1822 47.372 74.4382 47.852C74.7022 48.324 74.8342 48.86 74.8342 49.46ZM73.7062 49.232C73.7062 48.816 73.6142 48.46 73.4302 48.164C73.2462 47.86 72.9942 47.632 72.6742 47.48C72.3622 47.32 72.0142 47.24 71.6302 47.24C71.0782 47.24 70.6062 47.416 70.2142 47.768C69.8302 48.12 69.6102 48.608 69.5542 49.232H73.7062ZM78.6036 53.108C78.0996 53.108 77.6476 53.024 77.2476 52.856C76.8476 52.68 76.5316 52.44 76.2996 52.136C76.0676 51.824 75.9396 51.468 75.9156 51.068H77.0436C77.0756 51.396 77.2276 51.664 77.4996 51.872C77.7796 52.08 78.1436 52.184 78.5916 52.184C79.0076 52.184 79.3356 52.092 79.5756 51.908C79.8156 51.724 79.9356 51.492 79.9356 51.212C79.9356 50.924 79.8076 50.712 79.5516 50.576C79.2956 50.432 78.8996 50.292 78.3636 50.156C77.8756 50.028 77.4756 49.9 77.1636 49.772C76.8596 49.636 76.5956 49.44 76.3716 49.184C76.1556 48.92 76.0476 48.576 76.0476 48.152C76.0476 47.816 76.1476 47.508 76.3476 47.228C76.5476 46.948 76.8316 46.728 77.1996 46.568C77.5676 46.4 77.9876 46.316 78.4596 46.316C79.1876 46.316 79.7756 46.5 80.2236 46.868C80.6716 47.236 80.9116 47.74 80.9436 48.38H79.8516C79.8276 48.036 79.6876 47.76 79.4316 47.552C79.1836 47.344 78.8476 47.24 78.4236 47.24C78.0316 47.24 77.7196 47.324 77.4876 47.492C77.2556 47.66 77.1396 47.88 77.1396 48.152C77.1396 48.368 77.2076 48.548 77.3436 48.692C77.4876 48.828 77.6636 48.94 77.8716 49.028C78.0876 49.108 78.3836 49.2 78.7596 49.304C79.2316 49.432 79.6156 49.56 79.9116 49.688C80.2076 49.808 80.4596 49.992 80.6676 50.24C80.8836 50.488 80.9956 50.812 81.0036 51.212C81.0036 51.572 80.9036 51.896 80.7036 52.184C80.5036 52.472 80.2196 52.7 79.8516 52.868C79.4916 53.028 79.0756 53.108 78.6036 53.108Z" fill="white"/>
</svg>
