<svg width="70" height="58" viewBox="0 0 70 58" fill="none" xmlns="http://www.w3.org/2000/svg">
<path d="M44.3334 18.6666V7.99992C44.3334 6.53325 43.1334 5.33325 41.6667 5.33325H23C21.5334 5.33325 20.3334 6.53325 20.3334 7.99992V18.6666C20.3334 20.1333 21.5334 21.3333 23 21.3333H41.6667C43.1334 21.3333 44.3334 20.1333 44.3334 18.6666ZM41.6667 18.6666H23V7.99992H41.6667V18.6666ZM32.3334 9.33325C30.12 9.33325 28.3334 11.1199 28.3334 13.3333C28.3334 15.5466 30.12 17.3333 32.3334 17.3333C34.5467 17.3333 36.3334 15.5466 36.3334 13.3333C36.3334 11.1199 34.5467 9.33325 32.3334 9.33325ZM49.6667 9.33325V23.9999C49.6667 25.4666 48.4667 26.6666 47 26.6666H24.3334V23.9999H47V9.33325H49.6667Z" fill="white"/>
<path d="M7.26 47.06C7.028 46.572 6.692 46.196 6.252 45.932C5.812 45.66 5.3 45.524 4.716 45.524C4.132 45.524 3.604 45.66 3.132 45.932C2.668 46.196 2.3 46.58 2.028 47.084C1.764 47.58 1.632 48.156 1.632 48.812C1.632 49.468 1.764 50.044 2.028 50.54C2.3 51.036 2.668 51.42 3.132 51.692C3.604 51.956 4.132 52.088 4.716 52.088C5.532 52.088 6.204 51.844 6.732 51.356C7.26 50.868 7.568 50.208 7.656 49.376H4.32V48.488H8.82V49.328C8.756 50.016 8.54 50.648 8.172 51.224C7.804 51.792 7.32 52.244 6.72 52.58C6.12 52.908 5.452 53.072 4.716 53.072C3.94 53.072 3.232 52.892 2.592 52.532C1.952 52.164 1.444 51.656 1.068 51.008C0.7 50.36 0.516 49.628 0.516 48.812C0.516 47.996 0.7 47.264 1.068 46.616C1.444 45.96 1.952 45.452 2.592 45.092C3.232 44.724 3.94 44.54 4.716 44.54C5.604 44.54 6.388 44.76 7.068 45.2C7.756 45.64 8.256 46.26 8.568 47.06H7.26ZM13.1318 53.108C12.5158 53.108 11.9558 52.968 11.4518 52.688C10.9558 52.408 10.5638 52.012 10.2758 51.5C9.99584 50.98 9.85584 50.38 9.85584 49.7C9.85584 49.028 9.99984 48.436 10.2878 47.924C10.5838 47.404 10.9838 47.008 11.4878 46.736C11.9918 46.456 12.5558 46.316 13.1798 46.316C13.8038 46.316 14.3678 46.456 14.8718 46.736C15.3758 47.008 15.7718 47.4 16.0598 47.912C16.3558 48.424 16.5038 49.02 16.5038 49.7C16.5038 50.38 16.3518 50.98 16.0478 51.5C15.7518 52.012 15.3478 52.408 14.8358 52.688C14.3238 52.968 13.7558 53.108 13.1318 53.108ZM13.1318 52.148C13.5238 52.148 13.8918 52.056 14.2358 51.872C14.5798 51.688 14.8558 51.412 15.0638 51.044C15.2798 50.676 15.3878 50.228 15.3878 49.7C15.3878 49.172 15.2838 48.724 15.0758 48.356C14.8678 47.988 14.5958 47.716 14.2598 47.54C13.9238 47.356 13.5598 47.264 13.1678 47.264C12.7678 47.264 12.3998 47.356 12.0638 47.54C11.7358 47.716 11.4718 47.988 11.2718 48.356C11.0718 48.724 10.9718 49.172 10.9718 49.7C10.9718 50.236 11.0678 50.688 11.2598 51.056C11.4598 51.424 11.7238 51.7 12.0518 51.884C12.3798 52.06 12.7398 52.148 13.1318 52.148ZM20.8076 53.108C20.1916 53.108 19.6316 52.968 19.1276 52.688C18.6316 52.408 18.2396 52.012 17.9516 51.5C17.6716 50.98 17.5316 50.38 17.5316 49.7C17.5316 49.028 17.6756 48.436 17.9636 47.924C18.2596 47.404 18.6596 47.008 19.1636 46.736C19.6676 46.456 20.2316 46.316 20.8556 46.316C21.4796 46.316 22.0436 46.456 22.5476 46.736C23.0516 47.008 23.4476 47.4 23.7356 47.912C24.0316 48.424 24.1796 49.02 24.1796 49.7C24.1796 50.38 24.0276 50.98 23.7236 51.5C23.4276 52.012 23.0236 52.408 22.5116 52.688C21.9996 52.968 21.4316 53.108 20.8076 53.108ZM20.8076 52.148C21.1996 52.148 21.5676 52.056 21.9116 51.872C22.2556 51.688 22.5316 51.412 22.7396 51.044C22.9556 50.676 23.0636 50.228 23.0636 49.7C23.0636 49.172 22.9596 48.724 22.7516 48.356C22.5436 47.988 22.2716 47.716 21.9356 47.54C21.5996 47.356 21.2356 47.264 20.8436 47.264C20.4436 47.264 20.0756 47.356 19.7396 47.54C19.4116 47.716 19.1476 47.988 18.9476 48.356C18.7476 48.724 18.6476 49.172 18.6476 49.7C18.6476 50.236 18.7436 50.688 18.9356 51.056C19.1356 51.424 19.3996 51.7 19.7276 51.884C20.0556 52.06 20.4156 52.148 20.8076 52.148ZM25.2074 49.688C25.2074 49.016 25.3434 48.428 25.6154 47.924C25.8874 47.412 26.2594 47.016 26.7314 46.736C27.2114 46.456 27.7474 46.316 28.3394 46.316C28.8514 46.316 29.3274 46.436 29.7674 46.676C30.2074 46.908 30.5434 47.216 30.7754 47.6V44.12H31.8794V53H30.7754V51.764C30.5594 52.156 30.2394 52.48 29.8154 52.736C29.3914 52.984 28.8954 53.108 28.3274 53.108C27.7434 53.108 27.2114 52.964 26.7314 52.676C26.2594 52.388 25.8874 51.984 25.6154 51.464C25.3434 50.944 25.2074 50.352 25.2074 49.688ZM30.7754 49.7C30.7754 49.204 30.6754 48.772 30.4754 48.404C30.2754 48.036 30.0034 47.756 29.6594 47.564C29.3234 47.364 28.9514 47.264 28.5434 47.264C28.1354 47.264 27.7634 47.36 27.4274 47.552C27.0914 47.744 26.8234 48.024 26.6234 48.392C26.4234 48.76 26.3234 49.192 26.3234 49.688C26.3234 50.192 26.4234 50.632 26.6234 51.008C26.8234 51.376 27.0914 51.66 27.4274 51.86C27.7634 52.052 28.1354 52.148 28.5434 52.148C28.9514 52.148 29.3234 52.052 29.6594 51.86C30.0034 51.66 30.2754 51.376 30.4754 51.008C30.6754 50.632 30.7754 50.196 30.7754 49.7ZM41.328 53L39.336 49.58H38.016V53H36.924V44.636H39.624C40.256 44.636 40.788 44.744 41.22 44.96C41.66 45.176 41.988 45.468 42.204 45.836C42.42 46.204 42.528 46.624 42.528 47.096C42.528 47.672 42.36 48.18 42.024 48.62C41.696 49.06 41.2 49.352 40.536 49.496L42.636 53H41.328ZM38.016 48.704H39.624C40.216 48.704 40.66 48.56 40.956 48.272C41.252 47.976 41.4 47.584 41.4 47.096C41.4 46.6 41.252 46.216 40.956 45.944C40.668 45.672 40.224 45.536 39.624 45.536H38.016V48.704ZM43.8168 49.688C43.8168 49.016 43.9528 48.428 44.2248 47.924C44.4968 47.412 44.8688 47.016 45.3408 46.736C45.8208 46.456 46.3528 46.316 46.9368 46.316C47.5128 46.316 48.0128 46.44 48.4368 46.688C48.8608 46.936 49.1768 47.248 49.3848 47.624V46.424H50.4888V53H49.3848V51.776C49.1688 52.16 48.8448 52.48 48.4128 52.736C47.9888 52.984 47.4928 53.108 46.9248 53.108C46.3408 53.108 45.8128 52.964 45.3408 52.676C44.8688 52.388 44.4968 51.984 44.2248 51.464C43.9528 50.944 43.8168 50.352 43.8168 49.688ZM49.3848 49.7C49.3848 49.204 49.2848 48.772 49.0848 48.404C48.8848 48.036 48.6128 47.756 48.2688 47.564C47.9328 47.364 47.5608 47.264 47.1528 47.264C46.7448 47.264 46.3728 47.36 46.0368 47.552C45.7008 47.744 45.4328 48.024 45.2328 48.392C45.0328 48.76 44.9328 49.192 44.9328 49.688C44.9328 50.192 45.0328 50.632 45.2328 51.008C45.4328 51.376 45.7008 51.66 46.0368 51.86C46.3728 52.052 46.7448 52.148 47.1528 52.148C47.5608 52.148 47.9328 52.052 48.2688 51.86C48.6128 51.66 48.8848 51.376 49.0848 51.008C49.2848 50.632 49.3848 50.196 49.3848 49.7ZM53.6662 47.324V51.2C53.6662 51.52 53.7342 51.748 53.8702 51.884C54.0062 52.012 54.2422 52.076 54.5782 52.076H55.3822V53H54.3982C53.7902 53 53.3342 52.86 53.0302 52.58C52.7262 52.3 52.5742 51.84 52.5742 51.2V47.324H51.7222V46.424H52.5742V44.768H53.6662V46.424H55.3822V47.324H53.6662ZM62.7053 49.46C62.7053 49.668 62.6933 49.888 62.6693 50.12H57.4133C57.4533 50.768 57.6733 51.276 58.0733 51.644C58.4813 52.004 58.9733 52.184 59.5493 52.184C60.0213 52.184 60.4133 52.076 60.7253 51.86C61.0453 51.636 61.2693 51.34 61.3973 50.972H62.5733C62.3973 51.604 62.0453 52.12 61.5173 52.52C60.9893 52.912 60.3333 53.108 59.5493 53.108C58.9253 53.108 58.3653 52.968 57.8693 52.688C57.3813 52.408 56.9973 52.012 56.7173 51.5C56.4373 50.98 56.2973 50.38 56.2973 49.7C56.2973 49.02 56.4333 48.424 56.7053 47.912C56.9773 47.4 57.3573 47.008 57.8453 46.736C58.3413 46.456 58.9093 46.316 59.5493 46.316C60.1733 46.316 60.7253 46.452 61.2053 46.724C61.6853 46.996 62.0533 47.372 62.3093 47.852C62.5733 48.324 62.7053 48.86 62.7053 49.46ZM61.5773 49.232C61.5773 48.816 61.4853 48.46 61.3013 48.164C61.1173 47.86 60.8653 47.632 60.5453 47.48C60.2333 47.32 59.8853 47.24 59.5013 47.24C58.9493 47.24 58.4773 47.416 58.0853 47.768C57.7013 48.12 57.4813 48.608 57.4253 49.232H61.5773ZM66.4747 53.108C65.9707 53.108 65.5187 53.024 65.1187 52.856C64.7187 52.68 64.4027 52.44 64.1707 52.136C63.9387 51.824 63.8107 51.468 63.7867 51.068H64.9147C64.9467 51.396 65.0987 51.664 65.3707 51.872C65.6507 52.08 66.0147 52.184 66.4627 52.184C66.8787 52.184 67.2067 52.092 67.4467 51.908C67.6867 51.724 67.8067 51.492 67.8067 51.212C67.8067 50.924 67.6787 50.712 67.4227 50.576C67.1667 50.432 66.7707 50.292 66.2347 50.156C65.7467 50.028 65.3467 49.9 65.0347 49.772C64.7307 49.636 64.4667 49.44 64.2427 49.184C64.0267 48.92 63.9187 48.576 63.9187 48.152C63.9187 47.816 64.0187 47.508 64.2187 47.228C64.4187 46.948 64.7027 46.728 65.0707 46.568C65.4387 46.4 65.8587 46.316 66.3307 46.316C67.0587 46.316 67.6467 46.5 68.0947 46.868C68.5427 47.236 68.7827 47.74 68.8147 48.38H67.7227C67.6987 48.036 67.5587 47.76 67.3027 47.552C67.0547 47.344 66.7187 47.24 66.2947 47.24C65.9027 47.24 65.5907 47.324 65.3587 47.492C65.1267 47.66 65.0107 47.88 65.0107 48.152C65.0107 48.368 65.0787 48.548 65.2147 48.692C65.3587 48.828 65.5347 48.94 65.7427 49.028C65.9587 49.108 66.2547 49.2 66.6307 49.304C67.1027 49.432 67.4867 49.56 67.7827 49.688C68.0787 49.808 68.3307 49.992 68.5387 50.24C68.7547 50.488 68.8667 50.812 68.8747 51.212C68.8747 51.572 68.7747 51.896 68.5747 52.184C68.3747 52.472 68.0907 52.7 67.7227 52.868C67.3627 53.028 66.9467 53.108 66.4747 53.108Z" fill="white"/>
</svg>
