<svg width="32" height="32" viewBox="0 0 32 32" fill="none" xmlns="http://www.w3.org/2000/svg">
<path d="M21.5 2.5V3.906C20.6801 4.04679 19.9016 4.3671 19.22 4.844L18.188 3.874L16.813 5.344L17.813 6.281C17.3555 6.94769 17.0462 7.70469 16.906 8.501H15.5V10.501H16.906C17.052 11.331 17.38 12.087 17.844 12.751L16.781 13.781L18.221 15.221L19.251 14.157C19.915 14.621 20.671 14.949 21.501 15.095V16.5H23.501V15.094C24.2972 14.9541 25.0542 14.6452 25.721 14.188L26.657 15.188L28.127 13.812L27.157 12.782C27.627 12.112 27.947 11.337 28.095 10.5H29.5V8.5H28.094C27.95 7.6903 27.6298 6.92217 27.156 6.25L28.094 5.312L26.687 3.906L25.75 4.844C25.0778 4.37017 24.3097 4.04994 23.5 3.906V2.5H21.5ZM22.5 5.813C22.9851 5.80981 23.466 5.903 23.9148 6.08714C24.3637 6.27129 24.7715 6.54274 25.1145 6.88573C25.4576 7.22872 25.7292 7.63643 25.9135 8.08521C26.0977 8.53398 26.191 9.01488 26.188 9.5C26.188 11.555 24.555 13.188 22.5 13.188C20.445 13.188 18.812 11.555 18.812 9.5C18.812 7.445 20.445 5.812 22.5 5.812V5.813ZM9.52998 11.718L7.68798 12.468L8.40598 14.278C7.45021 14.85 6.64621 15.6437 6.06198 16.592L4.28198 15.872L3.53198 17.717L5.31198 18.435C5.1715 18.9759 5.09828 19.5321 5.09398 20.091C5.09398 20.661 5.17898 21.217 5.31198 21.747L3.53198 22.467L4.28198 24.31L6.06198 23.59C6.64088 24.5507 7.44549 25.3557 8.40598 25.935L7.68598 27.715L9.53098 28.465L10.251 26.685C10.7918 26.8258 11.3481 26.8991 11.907 26.903C12.477 26.903 13.035 26.818 13.563 26.685L14.283 28.465L16.126 27.715L15.406 25.935C16.355 25.3516 17.1489 24.5474 17.72 23.591L19.53 24.309L20.28 22.466L18.47 21.746C18.6 21.216 18.688 20.659 18.688 20.09C18.688 19.52 18.601 18.962 18.468 18.433L20.281 17.715L19.531 15.87L17.721 16.59C17.1466 15.6441 16.3529 14.8504 15.407 14.276L16.127 12.466L14.282 11.716L13.565 13.526C13.0236 13.3864 12.4671 13.3135 11.908 13.309C11.338 13.309 10.782 13.395 10.252 13.527L9.53198 11.717L9.52998 11.718ZM11.906 15.31C14.569 15.31 16.686 17.43 16.686 20.092C16.688 22.755 14.569 24.904 11.906 24.904C11.2738 24.9048 10.6478 24.7809 10.0636 24.5393C9.4794 24.2978 8.94862 23.9434 8.50162 23.4964C8.05463 23.0494 7.70021 22.5186 7.45867 21.9344C7.21712 21.3502 7.09319 20.7241 7.09398 20.092C7.09398 17.429 9.24398 15.31 11.906 15.31Z" fill="white"/>
</svg>
