<svg width="80" height="80" viewBox="0 0 80 80" fill="none" xmlns="http://www.w3.org/2000/svg">
<path d="M53.75 6.25V9.765C51.7004 10.117 49.754 10.9178 48.05 12.11L45.47 9.685L42.0325 13.36L44.5325 15.7025C43.3888 17.3692 42.6156 19.2617 42.265 21.2525H38.75V26.2525H42.265C42.63 28.3275 43.45 30.2175 44.61 31.8775L41.9525 34.4525L45.5525 38.0525L48.1275 35.3925C49.7875 36.5525 51.6775 37.3725 53.7525 37.7375V41.25H58.7525V37.735C60.7431 37.3852 62.6356 36.6129 64.3025 35.47L66.6425 37.97L70.3175 34.53L67.8925 31.955C69.0675 30.28 69.8675 28.3425 70.2375 26.25H73.75V21.25H70.235C69.8752 19.2258 69.0746 17.3054 67.89 15.625L70.235 13.28L66.7175 9.765L64.375 12.11C62.6946 10.9254 60.7743 10.1248 58.75 9.765V6.25H53.75ZM56.25 14.5325C57.4628 14.5245 58.6651 14.7575 59.7872 15.2179C60.9092 15.6782 61.9287 16.3568 62.7864 17.2143C63.6441 18.0718 64.323 19.0911 64.7837 20.213C65.2444 21.3349 65.4777 22.5372 65.47 23.75C65.47 28.8875 61.3875 32.97 56.25 32.97C51.1125 32.97 47.03 28.8875 47.03 23.75C47.03 18.6125 51.1125 14.53 56.25 14.53V14.5325ZM23.825 29.295L19.22 31.17L21.015 35.695C18.6256 37.1249 16.6156 39.1092 15.155 41.48L10.705 39.68L8.83002 44.2925L13.28 46.0875C12.9288 47.4398 12.7458 48.8303 12.735 50.2275C12.735 51.6525 12.9475 53.0425 13.28 54.3675L8.83002 56.1675L10.705 60.775L15.155 58.975C16.6023 61.3768 18.6138 63.3892 21.015 64.8375L19.215 69.2875L23.8275 71.1625L25.6275 66.7125C26.9797 67.0646 28.3703 67.2477 29.7675 67.2575C31.1925 67.2575 32.5875 67.045 33.9075 66.7125L35.7075 71.1625L40.315 69.2875L38.515 64.8375C40.8875 63.379 42.8722 61.3686 44.3 58.9775L48.825 60.7725L50.7 56.165L46.175 54.365C46.5 53.04 46.72 51.6475 46.72 50.225C46.72 48.8 46.5025 47.405 46.17 46.0825L50.7025 44.2875L48.8275 39.675L44.3025 41.475C42.8665 39.1102 40.8823 37.126 38.5175 35.69L40.3175 31.165L35.705 29.29L33.9125 33.815C32.559 33.466 31.1678 33.2838 29.77 33.2725C28.345 33.2725 26.955 33.4875 25.63 33.8175L23.83 29.2925L23.825 29.295ZM29.765 38.275C36.4225 38.275 41.715 43.575 41.715 50.23C41.72 56.8875 36.4225 62.26 29.765 62.26C28.1847 62.262 26.6194 61.9522 25.159 61.3483C23.6986 60.7444 22.3716 59.8584 21.2541 58.7409C20.1366 57.6234 19.2506 56.2965 18.6467 54.836C18.0429 53.3756 17.733 51.8104 17.735 50.23C17.735 43.5725 23.11 38.275 29.765 38.275Z" fill="#0E204E"/>
</svg>
