<svg width="49" height="76" viewBox="0 0 49 76" fill="none" xmlns="http://www.w3.org/2000/svg">
<path d="M24.5 20V23M13.5 15V30H35.5V15H13.5ZM17.5 15C17.5 9 17.5 5 24.5 5C31.5 5 31.5 9 31.5 15H17.5Z" stroke="white" stroke-width="2" stroke-linecap="round" stroke-linejoin="round"/>
<path d="M24.5 25C25.0523 25 25.5 24.5523 25.5 24C25.5 23.4477 25.0523 23 24.5 23C23.9477 23 23.5 23.4477 23.5 24C23.5 24.5523 23.9477 25 24.5 25Z" stroke="white" stroke-width="2" stroke-linecap="round" stroke-linejoin="round"/>
<path d="M10.5023 47.084C10.5023 47.78 10.2623 48.36 9.78233 48.824C9.31033 49.28 8.58633 49.508 7.61033 49.508H6.00233V53H4.91033V44.636H7.61033C8.55433 44.636 9.27033 44.864 9.75833 45.32C10.2543 45.776 10.5023 46.364 10.5023 47.084ZM7.61033 48.608C8.21833 48.608 8.66633 48.476 8.95433 48.212C9.24233 47.948 9.38633 47.572 9.38633 47.084C9.38633 46.052 8.79433 45.536 7.61033 45.536H6.00233V48.608H7.61033ZM12.9515 47.492C13.1435 47.116 13.4155 46.824 13.7675 46.616C14.1275 46.408 14.5635 46.304 15.0755 46.304V47.432H14.7875C13.5635 47.432 12.9515 48.096 12.9515 49.424V53H11.8595V46.424H12.9515V47.492ZM16.9001 45.356C16.6921 45.356 16.5161 45.284 16.3721 45.14C16.2281 44.996 16.1561 44.82 16.1561 44.612C16.1561 44.404 16.2281 44.228 16.3721 44.084C16.5161 43.94 16.6921 43.868 16.9001 43.868C17.1001 43.868 17.2681 43.94 17.4041 44.084C17.5481 44.228 17.6201 44.404 17.6201 44.612C17.6201 44.82 17.5481 44.996 17.4041 45.14C17.2681 45.284 17.1001 45.356 16.9001 45.356ZM17.4281 46.424V53H16.3361V46.424H17.4281ZM21.7372 51.992L23.7772 46.424H24.9412L22.3612 53H21.0892L18.5092 46.424H19.6852L21.7372 51.992ZM25.6078 49.688C25.6078 49.016 25.7438 48.428 26.0158 47.924C26.2878 47.412 26.6598 47.016 27.1318 46.736C27.6118 46.456 28.1438 46.316 28.7278 46.316C29.3038 46.316 29.8038 46.44 30.2278 46.688C30.6518 46.936 30.9678 47.248 31.1758 47.624V46.424H32.2798V53H31.1758V51.776C30.9598 52.16 30.6358 52.48 30.2038 52.736C29.7798 52.984 29.2838 53.108 28.7158 53.108C28.1318 53.108 27.6038 52.964 27.1318 52.676C26.6598 52.388 26.2878 51.984 26.0158 51.464C25.7438 50.944 25.6078 50.352 25.6078 49.688ZM31.1758 49.7C31.1758 49.204 31.0758 48.772 30.8758 48.404C30.6758 48.036 30.4038 47.756 30.0598 47.564C29.7238 47.364 29.3518 47.264 28.9438 47.264C28.5358 47.264 28.1638 47.36 27.8278 47.552C27.4918 47.744 27.2238 48.024 27.0238 48.392C26.8238 48.76 26.7238 49.192 26.7238 49.688C26.7238 50.192 26.8238 50.632 27.0238 51.008C27.2238 51.376 27.4918 51.66 27.8278 51.86C28.1638 52.052 28.5358 52.148 28.9438 52.148C29.3518 52.148 29.7238 52.052 30.0598 51.86C30.4038 51.66 30.6758 51.376 30.8758 51.008C31.0758 50.632 31.1758 50.196 31.1758 49.7ZM35.4572 47.324V51.2C35.4572 51.52 35.5252 51.748 35.6612 51.884C35.7972 52.012 36.0332 52.076 36.3692 52.076H37.1732V53H36.1892C35.5812 53 35.1252 52.86 34.8212 52.58C34.5172 52.3 34.3652 51.84 34.3652 51.2V47.324H33.5132V46.424H34.3652V44.768H35.4572V46.424H37.1732V47.324H35.4572ZM44.4963 49.46C44.4963 49.668 44.4843 49.888 44.4603 50.12H39.2043C39.2443 50.768 39.4643 51.276 39.8643 51.644C40.2723 52.004 40.7643 52.184 41.3403 52.184C41.8123 52.184 42.2043 52.076 42.5163 51.86C42.8363 51.636 43.0603 51.34 43.1883 50.972H44.3643C44.1883 51.604 43.8363 52.12 43.3083 52.52C42.7803 52.912 42.1243 53.108 41.3403 53.108C40.7163 53.108 40.1563 52.968 39.6603 52.688C39.1723 52.408 38.7883 52.012 38.5083 51.5C38.2283 50.98 38.0883 50.38 38.0883 49.7C38.0883 49.02 38.2243 48.424 38.4963 47.912C38.7683 47.4 39.1483 47.008 39.6363 46.736C40.1323 46.456 40.7003 46.316 41.3403 46.316C41.9643 46.316 42.5163 46.452 42.9963 46.724C43.4763 46.996 43.8443 47.372 44.1003 47.852C44.3643 48.324 44.4963 48.86 44.4963 49.46ZM43.3683 49.232C43.3683 48.816 43.2763 48.46 43.0923 48.164C42.9083 47.86 42.6563 47.632 42.3363 47.48C42.0243 47.32 41.6763 47.24 41.2923 47.24C40.7403 47.24 40.2683 47.416 39.8763 47.768C39.4923 48.12 39.2723 48.608 39.2163 49.232H43.3683ZM4.07014 71.084C3.51814 71.084 3.02214 70.988 2.58214 70.796C2.15014 70.596 1.81014 70.324 1.56214 69.98C1.31414 69.628 1.18614 69.224 1.17814 68.768H2.34214C2.38214 69.16 2.54214 69.492 2.82214 69.764C3.11014 70.028 3.52614 70.16 4.07014 70.16C4.59014 70.16 4.99814 70.032 5.29414 69.776C5.59814 69.512 5.75014 69.176 5.75014 68.768C5.75014 68.448 5.66214 68.188 5.48614 67.988C5.31014 67.788 5.09014 67.636 4.82614 67.532C4.56214 67.428 4.20614 67.316 3.75814 67.196C3.20614 67.052 2.76214 66.908 2.42614 66.764C2.09814 66.62 1.81414 66.396 1.57414 66.092C1.34214 65.78 1.22614 65.364 1.22614 64.844C1.22614 64.388 1.34214 63.984 1.57414 63.632C1.80614 63.28 2.13014 63.008 2.54614 62.816C2.97014 62.624 3.45414 62.528 3.99814 62.528C4.78214 62.528 5.42214 62.724 5.91814 63.116C6.42214 63.508 6.70614 64.028 6.77014 64.676H5.57014C5.53014 64.356 5.36214 64.076 5.06614 63.836C4.77014 63.588 4.37814 63.464 3.89014 63.464C3.43414 63.464 3.06214 63.584 2.77414 63.824C2.48614 64.056 2.34214 64.384 2.34214 64.808C2.34214 65.112 2.42614 65.36 2.59414 65.552C2.77014 65.744 2.98214 65.892 3.23014 65.996C3.48614 66.092 3.84214 66.204 4.29814 66.332C4.85014 66.484 5.29414 66.636 5.63014 66.788C5.96614 66.932 6.25414 67.16 6.49414 67.472C6.73414 67.776 6.85414 68.192 6.85414 68.72C6.85414 69.128 6.74614 69.512 6.53014 69.872C6.31414 70.232 5.99414 70.524 5.57014 70.748C5.14614 70.972 4.64614 71.084 4.07014 71.084ZM14.4611 67.46C14.4611 67.668 14.4491 67.888 14.4251 68.12H9.16911C9.20911 68.768 9.42911 69.276 9.82911 69.644C10.2371 70.004 10.7291 70.184 11.3051 70.184C11.7771 70.184 12.1691 70.076 12.4811 69.86C12.8011 69.636 13.0251 69.34 13.1531 68.972H14.3291C14.1531 69.604 13.8011 70.12 13.2731 70.52C12.7451 70.912 12.0891 71.108 11.3051 71.108C10.6811 71.108 10.1211 70.968 9.62511 70.688C9.13711 70.408 8.75311 70.012 8.47311 69.5C8.19311 68.98 8.05311 68.38 8.05311 67.7C8.05311 67.02 8.18911 66.424 8.46111 65.912C8.73311 65.4 9.11311 65.008 9.60111 64.736C10.0971 64.456 10.6651 64.316 11.3051 64.316C11.9291 64.316 12.4811 64.452 12.9611 64.724C13.4411 64.996 13.8091 65.372 14.0651 65.852C14.3291 66.324 14.4611 66.86 14.4611 67.46ZM13.3331 67.232C13.3331 66.816 13.2411 66.46 13.0571 66.164C12.8731 65.86 12.6211 65.632 12.3011 65.48C11.9891 65.32 11.6411 65.24 11.2571 65.24C10.7051 65.24 10.2331 65.416 9.84111 65.768C9.45711 66.12 9.23711 66.608 9.18111 67.232H13.3331ZM15.4945 67.7C15.4945 67.02 15.6305 66.428 15.9025 65.924C16.1745 65.412 16.5505 65.016 17.0305 64.736C17.5185 64.456 18.0745 64.316 18.6985 64.316C19.5065 64.316 20.1705 64.512 20.6905 64.904C21.2185 65.296 21.5665 65.84 21.7345 66.536H20.5585C20.4465 66.136 20.2265 65.82 19.8985 65.588C19.5785 65.356 19.1785 65.24 18.6985 65.24C18.0745 65.24 17.5705 65.456 17.1865 65.888C16.8025 66.312 16.6105 66.916 16.6105 67.7C16.6105 68.492 16.8025 69.104 17.1865 69.536C17.5705 69.968 18.0745 70.184 18.6985 70.184C19.1785 70.184 19.5785 70.072 19.8985 69.848C20.2185 69.624 20.4385 69.304 20.5585 68.888H21.7345C21.5585 69.56 21.2065 70.1 20.6785 70.508C20.1505 70.908 19.4905 71.108 18.6985 71.108C18.0745 71.108 17.5185 70.968 17.0305 70.688C16.5505 70.408 16.1745 70.012 15.9025 69.5C15.6305 68.988 15.4945 68.388 15.4945 67.7ZM29.0236 64.424V71H27.9316V70.028C27.7236 70.364 27.4316 70.628 27.0556 70.82C26.6876 71.004 26.2796 71.096 25.8316 71.096C25.3196 71.096 24.8596 70.992 24.4516 70.784C24.0436 70.568 23.7196 70.248 23.4796 69.824C23.2476 69.4 23.1316 68.884 23.1316 68.276V64.424H24.2116V68.132C24.2116 68.78 24.3756 69.28 24.7036 69.632C25.0316 69.976 25.4796 70.148 26.0476 70.148C26.6316 70.148 27.0916 69.968 27.4276 69.608C27.7636 69.248 27.9316 68.724 27.9316 68.036V64.424H29.0236ZM31.9594 65.492C32.1514 65.116 32.4234 64.824 32.7754 64.616C33.1354 64.408 33.5714 64.304 34.0834 64.304V65.432H33.7954C32.5714 65.432 31.9594 66.096 31.9594 67.424V71H30.8674V64.424H31.9594V65.492ZM35.9079 63.356C35.6999 63.356 35.5239 63.284 35.3799 63.14C35.2359 62.996 35.1639 62.82 35.1639 62.612C35.1639 62.404 35.2359 62.228 35.3799 62.084C35.5239 61.94 35.6999 61.868 35.9079 61.868C36.1079 61.868 36.2759 61.94 36.4119 62.084C36.5559 62.228 36.6279 62.404 36.6279 62.612C36.6279 62.82 36.5559 62.996 36.4119 63.14C36.2759 63.284 36.1079 63.356 35.9079 63.356ZM36.4359 64.424V71H35.3439V64.424H36.4359ZM39.629 65.324V69.2C39.629 69.52 39.697 69.748 39.833 69.884C39.969 70.012 40.205 70.076 40.541 70.076H41.345V71H40.361C39.753 71 39.297 70.86 38.993 70.58C38.689 70.3 38.537 69.84 38.537 69.2V65.324H37.685V64.424H38.537V62.768H39.629V64.424H41.345V65.324H39.629ZM48.3321 64.424L44.3721 74.096H43.2441L44.5401 70.928L41.8881 64.424H43.1001L45.1641 69.752L47.2041 64.424H48.3321Z" fill="white"/>
</svg>
