<svg width="58" height="76" viewBox="0 0 58 76" fill="none" xmlns="http://www.w3.org/2000/svg">
<path d="M29 1C23.4865 1 19 4.9445 19 9.793C19 12.358 20.684 14.999 22.3105 17.551C23.712 19.7475 25.0505 21.844 25.4685 24H32.531C32.95 21.8435 34.287 19.747 35.688 17.551C37.3155 14.999 39 12.358 39 9.793C39 4.9445 34.5135 1 29 1ZM29 14.837C29.966 15.8795 30.876 16.1895 31.292 16.2815C31.2295 16.559 31.173 16.83 31.1075 17.097C30.9845 17.643 30.8645 18.175 30.748 18.686C30.4234 20.1222 30.1075 21.5604 29.8005 23.0005H28.199C27.8912 21.5606 27.5754 20.1224 27.2515 18.686L26.891 17.097C26.8255 16.83 26.769 16.559 26.7075 16.2815C27.124 16.1895 28.034 15.8795 29 14.837ZM28.7305 13.7455C28.635 13.539 28.6005 13.328 28.6985 13.1725C28.7805 13.049 28.889 12.9785 29.0005 12.9785C29.112 12.9785 29.2195 13.049 29.3025 13.1725C29.4 13.328 29.366 13.5385 29.2705 13.7455C29.2 13.8915 29.1035 14.0305 29 14.165C28.8954 14.0352 28.8051 13.8946 28.7305 13.7455ZM34.8455 17.0125C33.554 19.037 32.326 20.9615 31.744 23H30.121C30.4808 21.5911 30.833 20.1802 31.1775 18.7675C31.3005 18.257 31.4305 17.7285 31.563 17.1835C31.637 16.8935 31.7025 16.5945 31.775 16.297C32.153 16.2715 32.5145 16.1535 32.7965 15.895C33.0855 15.6105 33.236 15.2385 33.1685 14.8415C33.138 14.6515 32.9955 14.4055 32.7205 14.3215C32.586 14.2761 32.4409 14.2728 32.3045 14.312C32.1909 14.3541 32.0886 14.4218 32.0055 14.51C31.739 14.806 31.642 15.1015 31.533 15.3945C31.482 15.542 31.44 15.6895 31.4 15.835C31.4 15.835 30.975 15.8675 30.066 15.256C29.561 14.9165 29.4155 14.671 29.269 14.5085C29.427 14.333 29.5785 14.1405 29.696 13.907C29.7585 13.7765 29.811 13.635 29.829 13.476C29.847 13.317 29.8175 13.137 29.7265 12.982C29.6294 12.8101 29.4769 12.6762 29.294 12.602C29.203 12.5695 29.1015 12.554 29 12.554C28.8985 12.554 28.796 12.569 28.706 12.602C28.5229 12.6763 28.3702 12.8102 28.2725 12.982C28.1815 13.1375 28.1525 13.317 28.17 13.476C28.1902 13.6262 28.2355 13.7719 28.304 13.907C28.421 14.1405 28.5725 14.3335 28.731 14.5085C28.5845 14.671 28.438 14.9165 27.933 15.256C27.024 15.868 26.599 15.835 26.599 15.835C26.5598 15.6868 26.5158 15.5399 26.467 15.3945C26.3565 15.1015 26.261 14.806 25.9945 14.51C25.9115 14.4217 25.8092 14.354 25.6955 14.312C25.5591 14.2728 25.414 14.2761 25.2795 14.3215C25.003 14.4055 24.8615 14.6515 24.8315 14.8415C24.763 15.2385 24.9145 15.6105 25.2035 15.895C25.4865 16.1535 25.847 16.2715 26.225 16.297C26.2965 16.595 26.3615 16.8935 26.437 17.1835L26.8225 18.7675C27.1673 20.1802 27.5195 21.591 27.879 23H26.256C25.675 20.9635 24.4465 19.039 23.1515 17.0105C21.602 14.579 20 12.065 20 9.793C20 5.496 24.037 2 29 2C33.9625 2 38 5.496 38 9.793C38 12.066 36.3965 14.5805 34.8455 17.0125ZM31.8995 15.832C31.929 15.7295 31.959 15.6255 31.994 15.5255C32.0885 15.262 32.209 14.9755 32.373 14.804C32.412 14.76 32.452 14.7425 32.4725 14.731C32.4725 14.733 32.5215 14.725 32.5525 14.7405C32.608 14.7545 32.661 14.812 32.6815 14.9225C32.7215 15.1365 32.62 15.412 32.4365 15.5845C32.3075 15.707 32.1085 15.793 31.8995 15.832ZM26.0995 15.832C25.8905 15.793 25.6915 15.707 25.5635 15.584C25.379 15.4115 25.2785 15.136 25.3185 14.922C25.339 14.811 25.3915 14.754 25.4475 14.74C25.479 14.725 25.5275 14.7325 25.5275 14.7305C25.547 14.742 25.588 14.76 25.625 14.8035C25.79 14.9755 25.91 15.2615 26.005 15.525C26.04 15.6255 26.0705 15.7295 26.0995 15.832ZM26.26 24.7785H25.76V26.5785H26.144V28.179H26.528V29.7795H27.171C27.4735 30.494 28.1735 31 29 31C29.826 31 30.5255 30.494 30.829 29.7785H31.4925V28.168L31.5485 28.1475L31.876 28.0275V26.566L31.9085 26.5555L32.259 26.4455V24.778H26.26V24.7785Z" fill="white"/>
<path d="M16.2585 52.124C17.2745 51.308 18.0705 50.64 18.6465 50.12C19.2225 49.592 19.7065 49.044 20.0985 48.476C20.4985 47.9 20.6985 47.336 20.6985 46.784C20.6985 46.264 20.5705 45.856 20.3145 45.56C20.0665 45.256 19.6625 45.104 19.1025 45.104C18.5585 45.104 18.1345 45.276 17.8305 45.62C17.5345 45.956 17.3745 46.408 17.3505 46.976H16.2945C16.3265 46.08 16.5985 45.388 17.1105 44.9C17.6225 44.412 18.2825 44.168 19.0905 44.168C19.9145 44.168 20.5665 44.396 21.0465 44.852C21.5345 45.308 21.7785 45.936 21.7785 46.736C21.7785 47.4 21.5785 48.048 21.1785 48.68C20.7865 49.304 20.3385 49.856 19.8345 50.336C19.3305 50.808 18.6865 51.36 17.9025 51.992H22.0305V52.904H16.2585V52.124ZM23.0288 51.068V50.24L27.2408 44.408H28.5488V50.12H29.7488V51.068H28.5488V53H27.4688V51.068H23.0288ZM27.5168 45.548L24.2888 50.12H27.5168V45.548ZM35.0997 41.696L31.8117 55.04H30.7317L34.0077 41.696H35.0997ZM41.8867 45.176L38.5507 53H37.4467L40.8307 45.284H36.1987V44.348H41.8867V45.176ZM2.51014 63.524V66.32H5.55814V67.22H2.51014V70.1H5.91814V71H1.41814V62.624H5.91814V63.524H2.51014ZM8.66248 62.12V71H7.57048V62.12H8.66248ZM16.5236 67.46C16.5236 67.668 16.5116 67.888 16.4876 68.12H11.2316C11.2716 68.768 11.4916 69.276 11.8916 69.644C12.2996 70.004 12.7916 70.184 13.3676 70.184C13.8396 70.184 14.2316 70.076 14.5436 69.86C14.8636 69.636 15.0876 69.34 15.2156 68.972H16.3916C16.2156 69.604 15.8636 70.12 15.3356 70.52C14.8076 70.912 14.1516 71.108 13.3676 71.108C12.7436 71.108 12.1836 70.968 11.6876 70.688C11.1996 70.408 10.8156 70.012 10.5356 69.5C10.2556 68.98 10.1156 68.38 10.1156 67.7C10.1156 67.02 10.2516 66.424 10.5236 65.912C10.7956 65.4 11.1756 65.008 11.6636 64.736C12.1596 64.456 12.7276 64.316 13.3676 64.316C13.9916 64.316 14.5436 64.452 15.0236 64.724C15.5036 64.996 15.8716 65.372 16.1276 65.852C16.3916 66.324 16.5236 66.86 16.5236 67.46ZM15.3956 67.232C15.3956 66.816 15.3036 66.46 15.1196 66.164C14.9356 65.86 14.6836 65.632 14.3636 65.48C14.0516 65.32 13.7036 65.24 13.3196 65.24C12.7676 65.24 12.2956 65.416 11.9036 65.768C11.5196 66.12 11.2996 66.608 11.2436 67.232H15.3956ZM17.557 67.7C17.557 67.02 17.693 66.428 17.965 65.924C18.237 65.412 18.613 65.016 19.093 64.736C19.581 64.456 20.137 64.316 20.761 64.316C21.569 64.316 22.233 64.512 22.753 64.904C23.281 65.296 23.629 65.84 23.797 66.536H22.621C22.509 66.136 22.289 65.82 21.961 65.588C21.641 65.356 21.241 65.24 20.761 65.24C20.137 65.24 19.633 65.456 19.249 65.888C18.865 66.312 18.673 66.916 18.673 67.7C18.673 68.492 18.865 69.104 19.249 69.536C19.633 69.968 20.137 70.184 20.761 70.184C21.241 70.184 21.641 70.072 21.961 69.848C22.281 69.624 22.501 69.304 22.621 68.888H23.797C23.621 69.56 23.269 70.1 22.741 70.508C22.213 70.908 21.553 71.108 20.761 71.108C20.137 71.108 19.581 70.968 19.093 70.688C18.613 70.408 18.237 70.012 17.965 69.5C17.693 68.988 17.557 68.388 17.557 67.7ZM26.5861 65.324V69.2C26.5861 69.52 26.6541 69.748 26.7901 69.884C26.9261 70.012 27.1621 70.076 27.4981 70.076H28.3021V71H27.3181C26.7101 71 26.2541 70.86 25.9501 70.58C25.6461 70.3 25.4941 69.84 25.4941 69.2V65.324H24.6421V64.424H25.4941V62.768H26.5861V64.424H28.3021V65.324H26.5861ZM30.7172 65.492C30.9092 65.116 31.1812 64.824 31.5332 64.616C31.8932 64.408 32.3292 64.304 32.8412 64.304V65.432H32.5532C31.3292 65.432 30.7172 66.096 30.7172 67.424V71H29.6252V64.424H30.7172V65.492ZM34.6657 63.356C34.4577 63.356 34.2817 63.284 34.1377 63.14C33.9937 62.996 33.9217 62.82 33.9217 62.612C33.9217 62.404 33.9937 62.228 34.1377 62.084C34.2817 61.94 34.4577 61.868 34.6657 61.868C34.8657 61.868 35.0337 61.94 35.1697 62.084C35.3137 62.228 35.3857 62.404 35.3857 62.612C35.3857 62.82 35.3137 62.996 35.1697 63.14C35.0337 63.284 34.8657 63.356 34.6657 63.356ZM35.1937 64.424V71H34.1017V64.424H35.1937ZM36.6469 67.7C36.6469 67.02 36.7829 66.428 37.0549 65.924C37.3269 65.412 37.7029 65.016 38.1829 64.736C38.6709 64.456 39.2269 64.316 39.8509 64.316C40.6589 64.316 41.3229 64.512 41.8429 64.904C42.3709 65.296 42.7189 65.84 42.8869 66.536H41.7109C41.5989 66.136 41.3789 65.82 41.0509 65.588C40.7309 65.356 40.3309 65.24 39.8509 65.24C39.2269 65.24 38.7229 65.456 38.3389 65.888C37.9549 66.312 37.7629 66.916 37.7629 67.7C37.7629 68.492 37.9549 69.104 38.3389 69.536C38.7229 69.968 39.2269 70.184 39.8509 70.184C40.3309 70.184 40.7309 70.072 41.0509 69.848C41.3709 69.624 41.5909 69.304 41.7109 68.888H42.8869C42.7109 69.56 42.3589 70.1 41.8309 70.508C41.3029 70.908 40.6429 71.108 39.8509 71.108C39.2269 71.108 38.6709 70.968 38.1829 70.688C37.7029 70.408 37.3269 70.012 37.0549 69.5C36.7829 68.988 36.6469 68.388 36.6469 67.7ZM44.9079 63.356C44.6999 63.356 44.5239 63.284 44.3799 63.14C44.2359 62.996 44.1639 62.82 44.1639 62.612C44.1639 62.404 44.2359 62.228 44.3799 62.084C44.5239 61.94 44.6999 61.868 44.9079 61.868C45.1079 61.868 45.2759 61.94 45.4119 62.084C45.5559 62.228 45.6279 62.404 45.6279 62.612C45.6279 62.82 45.5559 62.996 45.4119 63.14C45.2759 63.284 45.1079 63.356 44.9079 63.356ZM45.4359 64.424V71H44.3439V64.424H45.4359ZM48.629 65.324V69.2C48.629 69.52 48.697 69.748 48.833 69.884C48.969 70.012 49.205 70.076 49.541 70.076H50.345V71H49.361C48.753 71 48.297 70.86 47.993 70.58C47.689 70.3 47.537 69.84 47.537 69.2V65.324H46.685V64.424H47.537V62.768H48.629V64.424H50.345V65.324H48.629ZM57.3321 64.424L53.3721 74.096H52.2441L53.5401 70.928L50.8881 64.424H52.1001L54.1641 69.752L56.2041 64.424H57.3321Z" fill="white"/>
</svg>
