<svg width="66" height="76" viewBox="0 0 66 76" fill="none" xmlns="http://www.w3.org/2000/svg">
<path d="M38.5 2.5V3.906C37.6801 4.04679 36.9016 4.3671 36.22 4.844L35.188 3.874L33.813 5.344L34.813 6.281C34.3555 6.94769 34.0462 7.70469 33.906 8.501H32.5V10.501H33.906C34.052 11.331 34.38 12.087 34.844 12.751L33.781 13.781L35.221 15.221L36.251 14.157C36.915 14.621 37.671 14.949 38.501 15.095V16.5H40.501V15.094C41.2972 14.9541 42.0542 14.6452 42.721 14.188L43.657 15.188L45.127 13.812L44.157 12.782C44.627 12.112 44.947 11.337 45.095 10.5H46.5V8.5H45.094C44.95 7.6903 44.6298 6.92217 44.156 6.25L45.094 5.312L43.687 3.906L42.75 4.844C42.0778 4.37017 41.3097 4.04994 40.5 3.906V2.5H38.5ZM39.5 5.813C39.9851 5.80981 40.466 5.903 40.9148 6.08714C41.3637 6.27129 41.7715 6.54274 42.1145 6.88573C42.4576 7.22872 42.7292 7.63643 42.9135 8.08521C43.0977 8.53398 43.191 9.01488 43.188 9.5C43.188 11.555 41.555 13.188 39.5 13.188C37.445 13.188 35.812 11.555 35.812 9.5C35.812 7.445 37.445 5.812 39.5 5.812V5.813ZM26.53 11.718L24.688 12.468L25.406 14.278C24.4502 14.85 23.6462 15.6437 23.062 16.592L21.282 15.872L20.532 17.717L22.312 18.435C22.1715 18.9759 22.0983 19.5321 22.094 20.091C22.094 20.661 22.179 21.217 22.312 21.747L20.532 22.467L21.282 24.31L23.062 23.59C23.6409 24.5507 24.4455 25.3557 25.406 25.935L24.686 27.715L26.531 28.465L27.251 26.685C27.7918 26.8258 28.3481 26.8991 28.907 26.903C29.477 26.903 30.035 26.818 30.563 26.685L31.283 28.465L33.126 27.715L32.406 25.935C33.355 25.3516 34.1489 24.5474 34.72 23.591L36.53 24.309L37.28 22.466L35.47 21.746C35.6 21.216 35.688 20.659 35.688 20.09C35.688 19.52 35.601 18.962 35.468 18.433L37.281 17.715L36.531 15.87L34.721 16.59C34.1466 15.6441 33.3529 14.8504 32.407 14.276L33.127 12.466L31.282 11.716L30.565 13.526C30.0236 13.3864 29.4671 13.3135 28.908 13.309C28.338 13.309 27.782 13.395 27.252 13.527L26.532 11.717L26.53 11.718ZM28.906 15.31C31.569 15.31 33.686 17.43 33.686 20.092C33.688 22.755 31.569 24.904 28.906 24.904C28.2738 24.9048 27.6478 24.7809 27.0636 24.5393C26.4794 24.2978 25.9486 23.9434 25.5016 23.4964C25.0546 23.0494 24.7002 22.5186 24.4587 21.9344C24.2171 21.3502 24.0932 20.7241 24.094 20.092C24.094 17.429 26.244 15.31 28.906 15.31Z" fill="white"/>
<path d="M10.8358 53.084C10.2838 53.084 9.78777 52.988 9.34777 52.796C8.91577 52.596 8.57577 52.324 8.32777 51.98C8.07977 51.628 7.95177 51.224 7.94377 50.768H9.10777C9.14777 51.16 9.30777 51.492 9.58777 51.764C9.87577 52.028 10.2918 52.16 10.8358 52.16C11.3558 52.16 11.7638 52.032 12.0598 51.776C12.3638 51.512 12.5158 51.176 12.5158 50.768C12.5158 50.448 12.4278 50.188 12.2518 49.988C12.0758 49.788 11.8558 49.636 11.5918 49.532C11.3278 49.428 10.9718 49.316 10.5238 49.196C9.97177 49.052 9.52777 48.908 9.19177 48.764C8.86377 48.62 8.57977 48.396 8.33977 48.092C8.10777 47.78 7.99177 47.364 7.99177 46.844C7.99177 46.388 8.10777 45.984 8.33977 45.632C8.57177 45.28 8.89577 45.008 9.31177 44.816C9.73577 44.624 10.2198 44.528 10.7638 44.528C11.5478 44.528 12.1878 44.724 12.6838 45.116C13.1878 45.508 13.4718 46.028 13.5358 46.676H12.3358C12.2958 46.356 12.1278 46.076 11.8318 45.836C11.5358 45.588 11.1438 45.464 10.6558 45.464C10.1998 45.464 9.82777 45.584 9.53977 45.824C9.25177 46.056 9.10777 46.384 9.10777 46.808C9.10777 47.112 9.19177 47.36 9.35977 47.552C9.53577 47.744 9.74777 47.892 9.99577 47.996C10.2518 48.092 10.6078 48.204 11.0638 48.332C11.6158 48.484 12.0598 48.636 12.3958 48.788C12.7318 48.932 13.0198 49.16 13.2598 49.472C13.4998 49.776 13.6198 50.192 13.6198 50.72C13.6198 51.128 13.5118 51.512 13.2958 51.872C13.0798 52.232 12.7598 52.524 12.3358 52.748C11.9118 52.972 11.4118 53.084 10.8358 53.084ZM21.2267 49.46C21.2267 49.668 21.2147 49.888 21.1907 50.12H15.9347C15.9747 50.768 16.1947 51.276 16.5947 51.644C17.0027 52.004 17.4947 52.184 18.0707 52.184C18.5427 52.184 18.9347 52.076 19.2467 51.86C19.5667 51.636 19.7907 51.34 19.9187 50.972H21.0947C20.9187 51.604 20.5667 52.12 20.0387 52.52C19.5107 52.912 18.8547 53.108 18.0707 53.108C17.4467 53.108 16.8867 52.968 16.3907 52.688C15.9027 52.408 15.5187 52.012 15.2387 51.5C14.9587 50.98 14.8187 50.38 14.8187 49.7C14.8187 49.02 14.9547 48.424 15.2267 47.912C15.4987 47.4 15.8787 47.008 16.3667 46.736C16.8627 46.456 17.4307 46.316 18.0707 46.316C18.6947 46.316 19.2467 46.452 19.7267 46.724C20.2067 46.996 20.5747 47.372 20.8307 47.852C21.0947 48.324 21.2267 48.86 21.2267 49.46ZM20.0987 49.232C20.0987 48.816 20.0067 48.46 19.8227 48.164C19.6387 47.86 19.3867 47.632 19.0667 47.48C18.7547 47.32 18.4067 47.24 18.0227 47.24C17.4707 47.24 16.9987 47.416 16.6067 47.768C16.2227 48.12 16.0027 48.608 15.9467 49.232H20.0987ZM23.7601 47.492C23.9521 47.116 24.2241 46.824 24.5761 46.616C24.9361 46.408 25.3721 46.304 25.8841 46.304V47.432H25.5961C24.3721 47.432 23.7601 48.096 23.7601 49.424V53H22.6681V46.424H23.7601V47.492ZM29.5927 51.992L31.6327 46.424H32.7967L30.2167 53H28.9447L26.3647 46.424H27.5407L29.5927 51.992ZM34.4353 45.356C34.2273 45.356 34.0513 45.284 33.9073 45.14C33.7633 44.996 33.6913 44.82 33.6913 44.612C33.6913 44.404 33.7633 44.228 33.9073 44.084C34.0513 43.94 34.2273 43.868 34.4353 43.868C34.6353 43.868 34.8033 43.94 34.9393 44.084C35.0833 44.228 35.1553 44.404 35.1553 44.612C35.1553 44.82 35.0833 44.996 34.9393 45.14C34.8033 45.284 34.6353 45.356 34.4353 45.356ZM34.9633 46.424V53H33.8713V46.424H34.9633ZM36.4164 49.7C36.4164 49.02 36.5524 48.428 36.8244 47.924C37.0964 47.412 37.4724 47.016 37.9524 46.736C38.4404 46.456 38.9964 46.316 39.6204 46.316C40.4284 46.316 41.0924 46.512 41.6124 46.904C42.1404 47.296 42.4884 47.84 42.6564 48.536H41.4804C41.3684 48.136 41.1484 47.82 40.8204 47.588C40.5004 47.356 40.1004 47.24 39.6204 47.24C38.9964 47.24 38.4924 47.456 38.1084 47.888C37.7244 48.312 37.5324 48.916 37.5324 49.7C37.5324 50.492 37.7244 51.104 38.1084 51.536C38.4924 51.968 38.9964 52.184 39.6204 52.184C40.1004 52.184 40.5004 52.072 40.8204 51.848C41.1404 51.624 41.3604 51.304 41.4804 50.888H42.6564C42.4804 51.56 42.1284 52.1 41.6004 52.508C41.0724 52.908 40.4124 53.108 39.6204 53.108C38.9964 53.108 38.4404 52.968 37.9524 52.688C37.4724 52.408 37.0964 52.012 36.8244 51.5C36.5524 50.988 36.4164 50.388 36.4164 49.7ZM50.1135 49.46C50.1135 49.668 50.1015 49.888 50.0775 50.12H44.8215C44.8615 50.768 45.0815 51.276 45.4815 51.644C45.8895 52.004 46.3815 52.184 46.9575 52.184C47.4295 52.184 47.8215 52.076 48.1335 51.86C48.4535 51.636 48.6775 51.34 48.8055 50.972H49.9815C49.8055 51.604 49.4535 52.12 48.9255 52.52C48.3975 52.912 47.7415 53.108 46.9575 53.108C46.3335 53.108 45.7735 52.968 45.2775 52.688C44.7895 52.408 44.4055 52.012 44.1255 51.5C43.8455 50.98 43.7055 50.38 43.7055 49.7C43.7055 49.02 43.8415 48.424 44.1135 47.912C44.3855 47.4 44.7655 47.008 45.2535 46.736C45.7495 46.456 46.3175 46.316 46.9575 46.316C47.5815 46.316 48.1335 46.452 48.6135 46.724C49.0935 46.996 49.4615 47.372 49.7175 47.852C49.9815 48.324 50.1135 48.86 50.1135 49.46ZM48.9855 49.232C48.9855 48.816 48.8935 48.46 48.7095 48.164C48.5255 47.86 48.2735 47.632 47.9535 47.48C47.6415 47.32 47.2935 47.24 46.9095 47.24C46.3575 47.24 45.8855 47.416 45.4935 47.768C45.1095 48.12 44.8895 48.608 44.8335 49.232H48.9855ZM51.1469 49.688C51.1469 49.016 51.2829 48.428 51.5549 47.924C51.8269 47.412 52.1989 47.016 52.6709 46.736C53.1509 46.456 53.6869 46.316 54.2789 46.316C54.7909 46.316 55.2669 46.436 55.7069 46.676C56.1469 46.908 56.4829 47.216 56.7149 47.6V44.12H57.8189V53H56.7149V51.764C56.4989 52.156 56.1789 52.48 55.7549 52.736C55.3309 52.984 54.8349 53.108 54.2669 53.108C53.6829 53.108 53.1509 52.964 52.6709 52.676C52.1989 52.388 51.8269 51.984 51.5549 51.464C51.2829 50.944 51.1469 50.352 51.1469 49.688ZM56.7149 49.7C56.7149 49.204 56.6149 48.772 56.4149 48.404C56.2149 48.036 55.9429 47.756 55.5989 47.564C55.2629 47.364 54.8909 47.264 54.4829 47.264C54.0749 47.264 53.7029 47.36 53.3669 47.552C53.0309 47.744 52.7629 48.024 52.5629 48.392C52.3629 48.76 52.2629 49.192 52.2629 49.688C52.2629 50.192 52.3629 50.632 52.5629 51.008C52.7629 51.376 53.0309 51.66 53.3669 51.86C53.7029 52.052 54.0749 52.148 54.4829 52.148C54.8909 52.148 55.2629 52.052 55.5989 51.86C55.9429 51.66 56.2149 51.376 56.4149 51.008C56.6149 50.632 56.7149 50.196 56.7149 49.7ZM6.36605 69.14H2.71805L2.04605 71H0.894047L3.91805 62.684H5.17805L8.19005 71H7.03805L6.36605 69.14ZM6.05405 68.252L4.54205 64.028L3.03005 68.252H6.05405ZM10.6 65.636C10.816 65.26 11.136 64.948 11.56 64.7C11.992 64.444 12.492 64.316 13.06 64.316C13.644 64.316 14.172 64.456 14.644 64.736C15.124 65.016 15.5 65.412 15.772 65.924C16.044 66.428 16.18 67.016 16.18 67.688C16.18 68.352 16.044 68.944 15.772 69.464C15.5 69.984 15.124 70.388 14.644 70.676C14.172 70.964 13.644 71.108 13.06 71.108C12.5 71.108 12.004 70.984 11.572 70.736C11.148 70.48 10.824 70.164 10.6 69.788V74.12H9.50798V64.424H10.6V65.636ZM15.064 67.688C15.064 67.192 14.964 66.76 14.764 66.392C14.564 66.024 14.292 65.744 13.948 65.552C13.612 65.36 13.24 65.264 12.832 65.264C12.432 65.264 12.06 65.364 11.716 65.564C11.38 65.756 11.108 66.04 10.9 66.416C10.7 66.784 10.6 67.212 10.6 67.7C10.6 68.196 10.7 68.632 10.9 69.008C11.108 69.376 11.38 69.66 11.716 69.86C12.06 70.052 12.432 70.148 12.832 70.148C13.24 70.148 13.612 70.052 13.948 69.86C14.292 69.66 14.564 69.376 14.764 69.008C14.964 68.632 15.064 68.192 15.064 67.688ZM17.2094 67.688C17.2094 67.016 17.3454 66.428 17.6174 65.924C17.8894 65.412 18.2614 65.016 18.7334 64.736C19.2134 64.456 19.7454 64.316 20.3294 64.316C20.9054 64.316 21.4054 64.44 21.8294 64.688C22.2534 64.936 22.5694 65.248 22.7774 65.624V64.424H23.8814V71H22.7774V69.776C22.5614 70.16 22.2374 70.48 21.8054 70.736C21.3814 70.984 20.8854 71.108 20.3174 71.108C19.7334 71.108 19.2054 70.964 18.7334 70.676C18.2614 70.388 17.8894 69.984 17.6174 69.464C17.3454 68.944 17.2094 68.352 17.2094 67.688ZM22.7774 67.7C22.7774 67.204 22.6774 66.772 22.4774 66.404C22.2774 66.036 22.0054 65.756 21.6614 65.564C21.3254 65.364 20.9534 65.264 20.5454 65.264C20.1374 65.264 19.7654 65.36 19.4294 65.552C19.0934 65.744 18.8254 66.024 18.6254 66.392C18.4254 66.76 18.3254 67.192 18.3254 67.688C18.3254 68.192 18.4254 68.632 18.6254 69.008C18.8254 69.376 19.0934 69.66 19.4294 69.86C19.7654 70.052 20.1374 70.148 20.5454 70.148C20.9534 70.148 21.3254 70.052 21.6614 69.86C22.0054 69.66 22.2774 69.376 22.4774 69.008C22.6774 68.632 22.7774 68.196 22.7774 67.7ZM26.8187 65.492C27.0107 65.116 27.2827 64.824 27.6347 64.616C27.9947 64.408 28.4307 64.304 28.9427 64.304V65.432H28.6547C27.4307 65.432 26.8187 66.096 26.8187 67.424V71H25.7267V64.424H26.8187V65.492ZM31.5353 65.324V69.2C31.5353 69.52 31.6033 69.748 31.7393 69.884C31.8753 70.012 32.1113 70.076 32.4473 70.076H33.2513V71H32.2673C31.6593 71 31.2033 70.86 30.8993 70.58C30.5953 70.3 30.4433 69.84 30.4433 69.2V65.324H29.5913V64.424H30.4433V62.768H31.5353V64.424H33.2513V65.324H31.5353ZM42.4824 64.304C42.9944 64.304 43.4504 64.412 43.8504 64.628C44.2504 64.836 44.5664 65.152 44.7984 65.576C45.0304 66 45.1464 66.516 45.1464 67.124V71H44.0664V67.28C44.0664 66.624 43.9024 66.124 43.5744 65.78C43.2544 65.428 42.8184 65.252 42.2664 65.252C41.6984 65.252 41.2464 65.436 40.9104 65.804C40.5744 66.164 40.4064 66.688 40.4064 67.376V71H39.3264V67.28C39.3264 66.624 39.1624 66.124 38.8344 65.78C38.5144 65.428 38.0784 65.252 37.5264 65.252C36.9584 65.252 36.5064 65.436 36.1704 65.804C35.8344 66.164 35.6664 66.688 35.6664 67.376V71H34.5744V64.424H35.6664V65.372C35.8824 65.028 36.1704 64.764 36.5304 64.58C36.8984 64.396 37.3024 64.304 37.7424 64.304C38.2944 64.304 38.7824 64.428 39.2064 64.676C39.6304 64.924 39.9464 65.288 40.1544 65.768C40.3384 65.304 40.6424 64.944 41.0664 64.688C41.4904 64.432 41.9624 64.304 42.4824 64.304ZM52.9377 67.46C52.9377 67.668 52.9257 67.888 52.9017 68.12H47.6457C47.6857 68.768 47.9057 69.276 48.3057 69.644C48.7137 70.004 49.2057 70.184 49.7817 70.184C50.2537 70.184 50.6457 70.076 50.9577 69.86C51.2777 69.636 51.5017 69.34 51.6297 68.972H52.8057C52.6297 69.604 52.2777 70.12 51.7497 70.52C51.2217 70.912 50.5657 71.108 49.7817 71.108C49.1577 71.108 48.5977 70.968 48.1017 70.688C47.6137 70.408 47.2297 70.012 46.9497 69.5C46.6697 68.98 46.5297 68.38 46.5297 67.7C46.5297 67.02 46.6657 66.424 46.9377 65.912C47.2097 65.4 47.5897 65.008 48.0777 64.736C48.5737 64.456 49.1417 64.316 49.7817 64.316C50.4057 64.316 50.9577 64.452 51.4377 64.724C51.9177 64.996 52.2857 65.372 52.5417 65.852C52.8057 66.324 52.9377 66.86 52.9377 67.46ZM51.8097 67.232C51.8097 66.816 51.7177 66.46 51.5337 66.164C51.3497 65.86 51.0977 65.632 50.7777 65.48C50.4657 65.32 50.1177 65.24 49.7337 65.24C49.1817 65.24 48.7097 65.416 48.3177 65.768C47.9337 66.12 47.7137 66.608 47.6577 67.232H51.8097ZM57.5831 64.304C58.3831 64.304 59.0311 64.548 59.5271 65.036C60.0231 65.516 60.2711 66.212 60.2711 67.124V71H59.1911V67.28C59.1911 66.624 59.0271 66.124 58.6991 65.78C58.3711 65.428 57.9231 65.252 57.3551 65.252C56.7791 65.252 56.3191 65.432 55.9751 65.792C55.6391 66.152 55.4711 66.676 55.4711 67.364V71H54.3791V64.424H55.4711V65.36C55.6871 65.024 55.9791 64.764 56.3471 64.58C56.7231 64.396 57.1351 64.304 57.5831 64.304ZM63.3869 65.324V69.2C63.3869 69.52 63.4549 69.748 63.5909 69.884C63.7269 70.012 63.9629 70.076 64.2989 70.076H65.1029V71H64.1189C63.5109 71 63.0549 70.86 62.7509 70.58C62.4469 70.3 62.2949 69.84 62.2949 69.2V65.324H61.4429V64.424H62.2949V62.768H63.3869V64.424H65.1029V65.324H63.3869Z" fill="white"/>
</svg>
