<svg width="81" height="80" viewBox="0 0 81 80" fill="none" xmlns="http://www.w3.org/2000/svg">
<path d="M40.5 68C44.9183 68 48.5 64.4183 48.5 60C48.5 55.5817 44.9183 52 40.5 52C36.0817 52 32.5 55.5817 32.5 60C32.5 64.4183 36.0817 68 40.5 68Z" fill="#0E204E"/>
<path d="M4.5 29.6C9.00441 24.0668 14.5441 19.6354 20.751 16.6C26.9579 13.5646 33.69 11.9948 40.5 11.9948C47.31 11.9948 54.0421 13.5646 60.249 16.6C66.4559 19.6354 71.9956 24.0668 76.5 29.6L70.5 35.2C66.7463 30.4755 62.1299 26.6917 56.9575 24.1C51.7851 21.5082 46.175 20.1678 40.5 20.1678C34.825 20.1678 29.2149 21.5082 24.0425 24.1C18.8701 26.6917 14.2537 30.4755 10.5 35.2L4.5 29.6ZM19.3 42.4C21.9284 39.1514 25.2051 36.5404 28.9014 34.7494C32.5976 32.9583 36.6242 32.0304 40.7 32.0304C44.7758 32.0304 48.8024 32.9583 52.4986 34.7494C56.1949 36.5404 59.4716 39.1514 62.1 42.4L56.5 48C54.626 45.524 52.2513 43.5256 49.5512 42.1525C46.8512 40.7794 43.8947 40.0665 40.9 40.0665C37.9053 40.0665 34.9488 40.7794 32.2488 42.1525C29.5487 43.5256 27.174 45.524 25.3 48L19.3 42.4Z" fill="#0E204E"/>
</svg>
