<svg width="81" height="80" viewBox="0 0 81 80" fill="none" xmlns="http://www.w3.org/2000/svg">
<path d="M42.98 8.84806C42.2745 8.292 41.4023 7.98962 40.504 7.98962C39.6057 7.98962 38.7335 8.292 38.028 8.84806L24.796 19.2881C21.576 21.8281 21.968 26.2601 24.564 28.5441L18.708 33.3681C14.856 36.5481 16.416 42.4561 20.748 43.7481L14.404 49.6921C10.46 53.3841 13.076 60.0001 18.48 60.0001H32.5V67.0001C32.5 69.7601 34.74 72.0001 37.5 72.0001H43.5C46.26 72.0001 48.5 69.7601 48.5 67.0001V60.0001H62.516C67.92 60.0001 70.536 53.3801 66.588 49.6881L60.24 43.7521C64.584 42.4681 66.152 36.5521 62.292 33.3721L56.444 28.5481C59.04 26.2641 59.432 21.8281 56.216 19.2881L42.98 8.84806ZM44.5 60.0001V67.0001C44.5 67.2653 44.3946 67.5196 44.2071 67.7072C44.0196 67.8947 43.7652 68.0001 43.5 68.0001H37.5C37.2348 68.0001 36.9804 67.8947 36.7929 67.7072C36.6054 67.5196 36.5 67.2653 36.5 67.0001V60.0001H44.5ZM40.504 11.9881L53.736 22.4281C54.0585 22.6812 54.2954 23.0273 54.4147 23.4195C54.5339 23.8118 54.5297 24.2312 54.4027 24.621C54.2757 25.0108 54.032 25.3521 53.7045 25.5988C53.3771 25.8455 52.9817 25.9855 52.572 26.0001C52.1659 26.0128 51.7734 26.149 51.4466 26.3903C51.1198 26.6317 50.8743 26.9669 50.7427 27.3512C50.6111 27.7356 50.5997 28.1509 50.71 28.5419C50.8202 28.9329 51.047 29.2811 51.36 29.5401L59.748 36.4601C60.0646 36.7224 60.2926 37.0759 60.4011 37.4725C60.5095 37.8691 60.4931 38.2894 60.3541 38.6764C60.2151 39.0633 59.9602 39.398 59.6241 39.6348C59.288 39.8717 58.8871 39.9992 58.476 40.0001H55.444C55.0427 39.9998 54.6507 40.1203 54.3188 40.3459C53.9869 40.5714 53.7305 40.8915 53.583 41.2647C53.4354 41.6379 53.4036 42.0468 53.4915 42.4383C53.5794 42.8298 53.7831 43.1858 54.076 43.4601L63.852 52.6081C64.1392 52.8765 64.3391 53.225 64.4256 53.6085C64.5122 53.992 64.4814 54.3926 64.3374 54.7583C64.1933 55.1241 63.9426 55.4381 63.6178 55.6595C63.293 55.881 62.9091 55.9996 62.516 56.0001H18.48C18.0865 56.0004 17.7021 55.8823 17.3767 55.6612C17.0513 55.4401 16.7999 55.1261 16.6554 54.7602C16.5108 54.3943 16.4797 53.9933 16.5661 53.6095C16.6526 53.2256 16.8525 52.8767 17.14 52.6081L26.9 43.4601C27.1924 43.1863 27.3959 42.831 27.4841 42.4402C27.5722 42.0495 27.541 41.6412 27.3945 41.2684C27.2479 40.8956 26.9928 40.5754 26.6622 40.3492C26.3315 40.1231 25.9406 40.0014 25.54 40.0001H22.524C22.1119 40.0002 21.7098 39.8731 21.3727 39.636C21.0357 39.399 20.78 39.0636 20.6408 38.6757C20.5016 38.2878 20.4856 37.8664 20.595 37.4691C20.7044 37.0718 20.9339 36.718 21.252 36.4561L29.644 29.5401C29.9568 29.2813 30.1835 28.9335 30.2939 28.5429C30.4043 28.1522 30.3932 27.7372 30.2621 27.353C30.131 26.9688 29.8861 26.6336 29.5599 26.392C29.2337 26.1503 28.8417 26.0136 28.436 26.0001C28.0263 25.9855 27.6309 25.8455 27.3035 25.5988C26.976 25.3521 26.7323 25.0108 26.6053 24.621C26.4782 24.2312 26.4741 23.8118 26.5933 23.4195C26.7126 23.0273 26.9495 22.6812 27.272 22.4281L40.504 11.9881Z" fill="#0E204E"/>
</svg>
