<svg width="32" height="32" viewBox="0 0 32 32" fill="none" xmlns="http://www.w3.org/2000/svg">
<path d="M16 27.2001C17.7674 27.2001 19.2 25.7674 19.2 24C19.2 22.2327 17.7674 20.8 16 20.8C14.2327 20.8 12.8 22.2327 12.8 24C12.8 25.7674 14.2327 27.2001 16 27.2001Z" fill="white"/>
<path d="M1.59998 11.8399C3.40174 9.62669 5.6176 7.8541 8.10037 6.63994C10.5831 5.42579 13.276 4.79785 16 4.79785C18.724 4.79785 21.4168 5.42579 23.8996 6.63994C26.3823 7.8541 28.5982 9.62669 30.4 11.8399L28 14.0799C26.4985 12.1902 24.652 10.6766 22.583 9.63995C20.514 8.60324 18.27 8.06708 16 8.06708C13.73 8.06708 11.4859 8.60324 9.41697 9.63995C7.348 10.6766 5.50144 12.1902 3.99998 14.0799L1.59998 11.8399ZM7.51997 16.9599C8.57132 15.6605 9.88202 14.6161 11.3605 13.8997C12.839 13.1833 14.4497 12.8121 16.08 12.8121C17.7103 12.8121 19.3209 13.1833 20.7994 13.8997C22.2779 14.6161 23.5886 15.6605 24.64 16.9599L22.4 19.1999C21.6504 18.2095 20.7005 17.4102 19.6205 16.861C18.5405 16.3117 17.3579 16.0266 16.16 16.0266C14.9621 16.0266 13.7795 16.3117 12.6995 16.861C11.6195 17.4102 10.6696 18.2095 9.91997 19.1999L7.51997 16.9599Z" fill="white"/>
</svg>
