<svg width="20" height="20" viewBox="0 0 20 20" fill="none" xmlns="http://www.w3.org/2000/svg">
<path d="M2.85714 0C2.09938 0 1.37266 0.301019 0.836838 0.836838C0.301019 1.37266 0 2.09938 0 2.85714V17.1429C0 17.9006 0.301019 18.6273 0.836838 19.1632C1.37266 19.699 2.09938 20 2.85714 20H17.1429C17.9006 20 18.6273 19.699 19.1632 19.1632C19.699 18.6273 20 17.9006 20 17.1429V2.85714C20 2.09938 19.699 1.37266 19.1632 0.836838C18.6273 0.301019 17.9006 0 17.1429 0H2.85714ZM8.57143 14.8771L4.70429 11.01L6.72429 8.99L8.57143 10.8371L13.99 5.41857L16.01 7.43857L8.57143 14.8771Z" fill="#0E204E"/>
</svg>
