<svg width="71" height="58" viewBox="0 0 71 58" fill="none" xmlns="http://www.w3.org/2000/svg">
<path d="M36.492 3.53918C36.2097 3.31675 35.8609 3.1958 35.5016 3.1958C35.1422 3.1958 34.7934 3.31675 34.5112 3.53918L29.2184 7.71518C27.9304 8.73118 28.0872 10.504 29.1256 11.4176L26.7832 13.3472C25.2424 14.6192 25.8664 16.9824 27.5992 17.4992L25.0616 19.8768C23.484 21.3536 24.5304 24 26.692 24H32.3V26.8C32.3 27.904 33.196 28.8 34.3 28.8H36.7C37.804 28.8 38.7 27.904 38.7 26.8V24H44.3064C46.468 24 47.5144 21.352 45.9352 19.8752L43.396 17.5008C45.1336 16.9872 45.7608 14.6208 44.2168 13.3488L41.8776 11.4192C42.916 10.5056 43.0728 8.73118 41.7864 7.71518L36.492 3.53918ZM37.1 24V26.8C37.1 26.9061 37.0578 27.0078 36.9828 27.0828C36.9078 27.1578 36.806 27.2 36.7 27.2H34.3C34.1939 27.2 34.0921 27.1578 34.0171 27.0828C33.9421 27.0078 33.9 26.9061 33.9 26.8V24H37.1ZM35.5016 4.79518L40.7944 8.97118C40.9234 9.07243 41.0181 9.21087 41.0658 9.36777C41.1135 9.52466 41.1119 9.69243 41.061 9.84834C41.0102 10.0043 40.9127 10.1408 40.7818 10.2395C40.6508 10.3381 40.4926 10.3942 40.3288 10.4C40.1663 10.4051 40.0093 10.4595 39.8786 10.5561C39.7479 10.6526 39.6497 10.7867 39.597 10.9404C39.5444 11.0942 39.5398 11.2603 39.5839 11.4167C39.6281 11.5731 39.7187 11.7124 39.844 11.816L43.1992 14.584C43.3258 14.6889 43.417 14.8303 43.4604 14.989C43.5038 15.1476 43.4972 15.3157 43.4416 15.4705C43.386 15.6253 43.284 15.7591 43.1496 15.8539C43.0152 15.9486 42.8548 15.9996 42.6904 16H41.4776C41.317 15.9999 41.1602 16.0481 41.0275 16.1383C40.8947 16.2285 40.7922 16.3566 40.7332 16.5058C40.6741 16.6551 40.6614 16.8187 40.6966 16.9753C40.7317 17.1319 40.8132 17.2743 40.9304 17.384L44.8408 21.0432C44.9556 21.1505 45.0356 21.29 45.0702 21.4434C45.1048 21.5967 45.0925 21.757 45.0349 21.9033C44.9773 22.0496 44.877 22.1752 44.7471 22.2638C44.6172 22.3523 44.4636 22.3998 44.3064 22.4H26.692C26.5346 22.4001 26.3808 22.3529 26.2506 22.2644C26.1205 22.176 26.0199 22.0504 25.9621 21.904C25.9043 21.7577 25.8918 21.5973 25.9264 21.4437C25.961 21.2902 26.041 21.1506 26.156 21.0432L30.06 17.384C30.1769 17.2745 30.2583 17.1324 30.2936 16.976C30.3289 16.8197 30.3164 16.6564 30.2578 16.5073C30.1991 16.3582 30.0971 16.2301 29.9648 16.1396C29.8326 16.0492 29.6762 16.0005 29.516 16H28.3096C28.1447 16 27.9839 15.9492 27.8491 15.8544C27.7142 15.7595 27.612 15.6254 27.5563 15.4702C27.5006 15.3151 27.4942 15.1465 27.538 14.9876C27.5817 14.8287 27.6735 14.6872 27.8008 14.5824L31.1576 11.816C31.2827 11.7125 31.3733 11.5734 31.4175 11.4171C31.4617 11.2608 31.4572 11.0948 31.4048 10.9412C31.3523 10.7875 31.2544 10.6534 31.1239 10.5567C30.9934 10.4601 30.8366 10.4054 30.6744 10.4C30.5105 10.3942 30.3523 10.3381 30.2214 10.2395C30.0904 10.1408 29.9929 10.0043 29.9421 9.84834C29.8913 9.69243 29.8896 9.52466 29.9373 9.36777C29.985 9.21087 30.0798 9.07243 30.2088 8.97118L35.5016 4.79518Z" fill="white"/>
<path d="M2.016 45.524V48.32H5.064V49.22H2.016V52.1H5.424V53H0.924V44.624H5.424V45.524H2.016ZM6.66834 49.7C6.66834 49.02 6.80434 48.428 7.07634 47.924C7.34834 47.412 7.72434 47.016 8.20434 46.736C8.69234 46.456 9.24834 46.316 9.87234 46.316C10.6803 46.316 11.3443 46.512 11.8643 46.904C12.3923 47.296 12.7403 47.84 12.9083 48.536H11.7323C11.6203 48.136 11.4003 47.82 11.0723 47.588C10.7523 47.356 10.3523 47.24 9.87234 47.24C9.24834 47.24 8.74434 47.456 8.36034 47.888C7.97634 48.312 7.78434 48.916 7.78434 49.7C7.78434 50.492 7.97634 51.104 8.36034 51.536C8.74434 51.968 9.24834 52.184 9.87234 52.184C10.3523 52.184 10.7523 52.072 11.0723 51.848C11.3923 51.624 11.6123 51.304 11.7323 50.888H12.9083C12.7323 51.56 12.3803 52.1 11.8523 52.508C11.3243 52.908 10.6643 53.108 9.87234 53.108C9.24834 53.108 8.69234 52.968 8.20434 52.688C7.72434 52.408 7.34834 52.012 7.07634 51.5C6.80434 50.988 6.66834 50.388 6.66834 49.7ZM17.2334 53.108C16.6174 53.108 16.0574 52.968 15.5534 52.688C15.0574 52.408 14.6654 52.012 14.3774 51.5C14.0974 50.98 13.9574 50.38 13.9574 49.7C13.9574 49.028 14.1014 48.436 14.3894 47.924C14.6854 47.404 15.0854 47.008 15.5894 46.736C16.0934 46.456 16.6574 46.316 17.2814 46.316C17.9054 46.316 18.4694 46.456 18.9734 46.736C19.4774 47.008 19.8734 47.4 20.1614 47.912C20.4574 48.424 20.6054 49.02 20.6054 49.7C20.6054 50.38 20.4534 50.98 20.1494 51.5C19.8534 52.012 19.4494 52.408 18.9374 52.688C18.4254 52.968 17.8574 53.108 17.2334 53.108ZM17.2334 52.148C17.6254 52.148 17.9934 52.056 18.3374 51.872C18.6814 51.688 18.9574 51.412 19.1654 51.044C19.3814 50.676 19.4894 50.228 19.4894 49.7C19.4894 49.172 19.3854 48.724 19.1774 48.356C18.9694 47.988 18.6974 47.716 18.3614 47.54C18.0254 47.356 17.6614 47.264 17.2694 47.264C16.8694 47.264 16.5014 47.356 16.1654 47.54C15.8374 47.716 15.5734 47.988 15.3734 48.356C15.1734 48.724 15.0734 49.172 15.0734 49.7C15.0734 50.236 15.1694 50.688 15.3614 51.056C15.5614 51.424 15.8254 51.7 16.1534 51.884C16.4814 52.06 16.8414 52.148 17.2334 52.148ZM29.9684 44.636V45.524H26.3324V48.344H29.2844V49.232H26.3324V53H25.2404V44.636H29.9684ZM32.3793 47.492C32.5713 47.116 32.8433 46.824 33.1953 46.616C33.5553 46.408 33.9913 46.304 34.5033 46.304V47.432H34.2153C32.9913 47.432 32.3793 48.096 32.3793 49.424V53H31.2873V46.424H32.3793V47.492ZM36.3278 45.356C36.1198 45.356 35.9438 45.284 35.7998 45.14C35.6558 44.996 35.5838 44.82 35.5838 44.612C35.5838 44.404 35.6558 44.228 35.7998 44.084C35.9438 43.94 36.1198 43.868 36.3278 43.868C36.5278 43.868 36.6958 43.94 36.8318 44.084C36.9758 44.228 37.0478 44.404 37.0478 44.612C37.0478 44.82 36.9758 44.996 36.8318 45.14C36.6958 45.284 36.5278 45.356 36.3278 45.356ZM36.8558 46.424V53H35.7638V46.424H36.8558ZM44.717 49.46C44.717 49.668 44.705 49.888 44.681 50.12H39.425C39.465 50.768 39.685 51.276 40.085 51.644C40.493 52.004 40.985 52.184 41.561 52.184C42.033 52.184 42.425 52.076 42.737 51.86C43.057 51.636 43.281 51.34 43.409 50.972H44.585C44.409 51.604 44.057 52.12 43.529 52.52C43.001 52.912 42.345 53.108 41.561 53.108C40.937 53.108 40.377 52.968 39.881 52.688C39.393 52.408 39.009 52.012 38.729 51.5C38.449 50.98 38.309 50.38 38.309 49.7C38.309 49.02 38.445 48.424 38.717 47.912C38.989 47.4 39.369 47.008 39.857 46.736C40.353 46.456 40.921 46.316 41.561 46.316C42.185 46.316 42.737 46.452 43.217 46.724C43.697 46.996 44.065 47.372 44.321 47.852C44.585 48.324 44.717 48.86 44.717 49.46ZM43.589 49.232C43.589 48.816 43.497 48.46 43.313 48.164C43.129 47.86 42.877 47.632 42.557 47.48C42.245 47.32 41.897 47.24 41.513 47.24C40.961 47.24 40.489 47.416 40.097 47.768C39.713 48.12 39.493 48.608 39.437 49.232H43.589ZM49.3624 46.304C50.1624 46.304 50.8104 46.548 51.3064 47.036C51.8024 47.516 52.0504 48.212 52.0504 49.124V53H50.9704V49.28C50.9704 48.624 50.8064 48.124 50.4784 47.78C50.1504 47.428 49.7024 47.252 49.1344 47.252C48.5584 47.252 48.0984 47.432 47.7544 47.792C47.4184 48.152 47.2504 48.676 47.2504 49.364V53H46.1584V46.424H47.2504V47.36C47.4664 47.024 47.7584 46.764 48.1264 46.58C48.5024 46.396 48.9144 46.304 49.3624 46.304ZM53.4262 49.688C53.4262 49.016 53.5622 48.428 53.8342 47.924C54.1062 47.412 54.4782 47.016 54.9502 46.736C55.4302 46.456 55.9662 46.316 56.5582 46.316C57.0702 46.316 57.5462 46.436 57.9862 46.676C58.4262 46.908 58.7622 47.216 58.9942 47.6V44.12H60.0982V53H58.9942V51.764C58.7782 52.156 58.4582 52.48 58.0342 52.736C57.6102 52.984 57.1142 53.108 56.5462 53.108C55.9622 53.108 55.4302 52.964 54.9502 52.676C54.4782 52.388 54.1062 51.984 53.8342 51.464C53.5622 50.944 53.4262 50.352 53.4262 49.688ZM58.9942 49.7C58.9942 49.204 58.8942 48.772 58.6942 48.404C58.4942 48.036 58.2222 47.756 57.8782 47.564C57.5422 47.364 57.1702 47.264 56.7622 47.264C56.3542 47.264 55.9822 47.36 55.6462 47.552C55.3102 47.744 55.0422 48.024 54.8422 48.392C54.6422 48.76 54.5422 49.192 54.5422 49.688C54.5422 50.192 54.6422 50.632 54.8422 51.008C55.0422 51.376 55.3102 51.66 55.6462 51.86C55.9822 52.052 56.3542 52.148 56.7622 52.148C57.1702 52.148 57.5422 52.052 57.8782 51.86C58.2222 51.66 58.4942 51.376 58.6942 51.008C58.8942 50.632 58.9942 50.196 58.9942 49.7ZM63.0355 44.12V53H61.9435V44.12H63.0355ZM70.5607 46.424L66.6007 56.096H65.4727L66.7687 52.928L64.1167 46.424H65.3287L67.3927 51.752L69.4327 46.424H70.5607Z" fill="white"/>
</svg>
