<svg width="81" height="80" viewBox="0 0 81 80" fill="none" xmlns="http://www.w3.org/2000/svg">
<path d="M40.5 2.5C26.7162 2.5 15.5 12.3613 15.5 24.4825C15.5 30.895 19.71 37.4975 23.7763 43.8775C27.28 49.3688 30.6263 54.61 31.6712 60H49.3275C50.375 54.6087 53.7175 49.3675 57.22 43.8775C61.2887 37.4975 65.5 30.895 65.5 24.4825C65.5 12.3613 54.2838 2.5 40.5 2.5ZM40.5 37.0925C42.915 39.6987 45.19 40.4738 46.23 40.7038C46.0737 41.3975 45.9325 42.075 45.7687 42.7425C45.4613 44.1075 45.1612 45.4375 44.87 46.715C44.0585 50.3056 43.2689 53.901 42.5013 57.5013H38.4975C37.7281 53.9014 36.9385 50.306 36.1287 46.715L35.2275 42.7425C35.0637 42.075 34.9225 41.3975 34.7688 40.7038C35.81 40.4738 38.085 39.6987 40.5 37.0925ZM39.8263 34.3637C39.5875 33.8475 39.5012 33.32 39.7463 32.9312C39.9513 32.6225 40.2225 32.4463 40.5012 32.4463C40.78 32.4463 41.0487 32.6225 41.2562 32.9312C41.5 33.32 41.415 33.8462 41.1763 34.3637C41 34.7287 40.7588 35.0762 40.5 35.4125C40.2386 35.088 40.0127 34.7364 39.8263 34.3637ZM55.1138 42.5312C51.885 47.5925 48.815 52.4038 47.36 57.5H43.3025C44.2021 53.9777 45.0825 50.4506 45.9437 46.9188C46.2512 45.6425 46.5763 44.3213 46.9075 42.9588C47.0925 42.2337 47.2562 41.4863 47.4375 40.7425C48.3825 40.6788 49.2862 40.3838 49.9912 39.7375C50.7137 39.0263 51.09 38.0963 50.9213 37.1038C50.845 36.6287 50.4888 36.0137 49.8013 35.8037C49.465 35.6904 49.1023 35.6821 48.7613 35.78C48.4773 35.8852 48.2214 36.0546 48.0138 36.275C47.3475 37.015 47.105 37.7537 46.8325 38.4862C46.705 38.855 46.6 39.2238 46.5 39.5875C46.5 39.5875 45.4375 39.6688 43.165 38.14C41.9025 37.2912 41.5387 36.6775 41.1725 36.2713C41.5675 35.8325 41.9462 35.3512 42.24 34.7675C42.3962 34.4412 42.5275 34.0875 42.5725 33.69C42.6175 33.2925 42.5437 32.8425 42.3162 32.455C42.0734 32.0254 41.6923 31.6905 41.235 31.505C41.0075 31.4237 40.7537 31.385 40.5 31.385C40.2463 31.385 39.99 31.4225 39.765 31.505C39.3072 31.6908 38.9254 32.0255 38.6812 32.455C38.4538 32.8438 38.3813 33.2925 38.425 33.69C38.4754 34.0654 38.5887 34.4297 38.76 34.7675C39.0525 35.3512 39.4312 35.8338 39.8275 36.2713C39.4613 36.6775 39.095 37.2912 37.8325 38.14C35.56 39.67 34.4975 39.5875 34.4975 39.5875C34.3995 39.2169 34.2894 38.8497 34.1675 38.4862C33.8913 37.7537 33.6525 37.015 32.9862 36.275C32.7788 36.0544 32.5229 35.8849 32.2388 35.78C31.8977 35.6821 31.535 35.6904 31.1987 35.8037C30.5075 36.0137 30.1538 36.6287 30.0788 37.1038C29.9075 38.0963 30.2862 39.0263 31.0087 39.7375C31.7162 40.3838 32.6175 40.6788 33.5625 40.7425C33.7413 41.4875 33.9038 42.2337 34.0925 42.9588L35.0563 46.9188C35.9182 50.4504 36.7986 53.9775 37.6975 57.5H33.64C32.1875 52.4087 29.1162 47.5975 25.8787 42.5262C22.005 36.4475 18 30.1625 18 24.4825C18 13.74 28.0925 5 40.5 5C52.9062 5 63 13.74 63 24.4825C63 30.165 58.9913 36.4513 55.1138 42.5312ZM47.7487 39.58C47.8225 39.3237 47.8975 39.0638 47.985 38.8138C48.2212 38.155 48.5225 37.4388 48.9325 37.01C49.03 36.9 49.13 36.8563 49.1813 36.8275C49.1813 36.8325 49.3037 36.8125 49.3812 36.8512C49.52 36.8862 49.6525 37.03 49.7038 37.3062C49.8037 37.8412 49.55 38.53 49.0913 38.9613C48.7688 39.2675 48.2712 39.4825 47.7487 39.58ZM33.2487 39.58C32.7262 39.4825 32.2288 39.2675 31.9088 38.96C31.4475 38.5287 31.1962 37.84 31.2962 37.305C31.3475 37.0275 31.4788 36.885 31.6188 36.85C31.6975 36.8125 31.8188 36.8312 31.8188 36.8263C31.8675 36.855 31.97 36.9 32.0625 37.0088C32.475 37.4388 32.775 38.1537 33.0125 38.8125C33.1 39.0637 33.1762 39.3237 33.2487 39.58ZM33.65 61.9463H32.4V66.4463H33.36V70.4475H34.32V74.4487H35.9275C36.6837 76.235 38.4338 77.5 40.5 77.5C42.565 77.5 44.3138 76.235 45.0725 74.4463H46.7313V70.42L46.8713 70.3687L47.69 70.0687V66.415L47.7713 66.3887L48.6475 66.1137V61.945H33.65V61.9463Z" fill="#0E204E"/>
</svg>
