<svg width="81" height="80" viewBox="0 0 81 80" fill="none" xmlns="http://www.w3.org/2000/svg">
<path d="M63.8333 46.6667V20C63.8333 16.3334 60.8333 13.3334 57.1666 13.3334H10.5C6.83331 13.3334 3.83331 16.3334 3.83331 20V46.6667C3.83331 50.3334 6.83331 53.3334 10.5 53.3334H57.1666C60.8333 53.3334 63.8333 50.3334 63.8333 46.6667ZM57.1666 46.6667H10.5V20H57.1666V46.6667ZM33.8333 23.3334C28.3 23.3334 23.8333 27.8 23.8333 33.3334C23.8333 38.8667 28.3 43.3334 33.8333 43.3334C39.3666 43.3334 43.8333 38.8667 43.8333 33.3334C43.8333 27.8 39.3666 23.3334 33.8333 23.3334ZM77.1666 23.3334V60C77.1666 63.6667 74.1666 66.6667 70.5 66.6667H13.8333V60H70.5V23.3334H77.1666Z" fill="#0E204E"/>
</svg>
