<svg width="33" height="32" viewBox="0 0 33 32" fill="none" xmlns="http://www.w3.org/2000/svg">
<path d="M17.492 3.53918C17.2097 3.31675 16.8609 3.1958 16.5016 3.1958C16.1422 3.1958 15.7934 3.31675 15.5112 3.53918L10.2184 7.71518C8.93035 8.73118 9.08715 10.504 10.1256 11.4176L7.78316 13.3472C6.24236 14.6192 6.86635 16.9824 8.59915 17.4992L6.06156 19.8768C4.48396 21.3536 5.53035 24 7.69195 24H13.3V26.8C13.3 27.904 14.196 28.8 15.3 28.8H17.7C18.804 28.8 19.7 27.904 19.7 26.8V24H25.3064C27.468 24 28.5144 21.352 26.9352 19.8752L24.396 17.5008C26.1336 16.9872 26.7608 14.6208 25.2168 13.3488L22.8776 11.4192C23.916 10.5056 24.0728 8.73118 22.7864 7.71518L17.492 3.53918ZM18.1 24V26.8C18.1 26.9061 18.0578 27.0078 17.9828 27.0828C17.9078 27.1578 17.806 27.2 17.7 27.2H15.3C15.1939 27.2 15.0921 27.1578 15.0171 27.0828C14.9421 27.0078 14.9 26.9061 14.9 26.8V24H18.1ZM16.5016 4.79518L21.7944 8.97118C21.9234 9.07243 22.0181 9.21087 22.0658 9.36777C22.1135 9.52466 22.1119 9.69243 22.061 9.84834C22.0102 10.0043 21.9127 10.1408 21.7818 10.2395C21.6508 10.3381 21.4926 10.3942 21.3288 10.4C21.1663 10.4051 21.0093 10.4595 20.8786 10.5561C20.7479 10.6526 20.6497 10.7867 20.597 10.9404C20.5444 11.0942 20.5398 11.2603 20.5839 11.4167C20.6281 11.5731 20.7187 11.7124 20.844 11.816L24.1992 14.584C24.3258 14.6889 24.417 14.8303 24.4604 14.989C24.5038 15.1476 24.4972 15.3157 24.4416 15.4705C24.386 15.6253 24.284 15.7591 24.1496 15.8539C24.0152 15.9486 23.8548 15.9996 23.6904 16H22.4776C22.317 15.9999 22.1602 16.0481 22.0275 16.1383C21.8947 16.2285 21.7922 16.3566 21.7332 16.5058C21.6741 16.6551 21.6614 16.8187 21.6966 16.9753C21.7317 17.1319 21.8132 17.2743 21.9304 17.384L25.8408 21.0432C25.9556 21.1505 26.0356 21.29 26.0702 21.4434C26.1048 21.5967 26.0925 21.757 26.0349 21.9033C25.9773 22.0496 25.877 22.1752 25.7471 22.2638C25.6172 22.3523 25.4636 22.3998 25.3064 22.4H7.69195C7.53458 22.4001 7.3808 22.3529 7.25063 22.2644C7.12046 22.176 7.01992 22.0504 6.9621 21.904C6.90428 21.7577 6.89184 21.5973 6.92642 21.4437C6.96099 21.2902 7.04097 21.1506 7.15595 21.0432L11.06 17.384C11.1769 17.2745 11.2583 17.1324 11.2936 16.976C11.3289 16.8197 11.3164 16.6564 11.2578 16.5073C11.1991 16.3582 11.0971 16.2301 10.9648 16.1396C10.8326 16.0492 10.6762 16.0005 10.516 16H9.30956C9.14472 16 8.98388 15.9492 8.84905 15.8544C8.71422 15.7595 8.61197 15.6254 8.55628 15.4702C8.5006 15.3151 8.4942 15.1465 8.53796 14.9876C8.58172 14.8287 8.6735 14.6872 8.80076 14.5824L12.1576 11.816C12.2827 11.7125 12.3733 11.5734 12.4175 11.4171C12.4617 11.2608 12.4572 11.0948 12.4048 10.9412C12.3523 10.7875 12.2544 10.6534 12.1239 10.5567C11.9934 10.4601 11.8366 10.4054 11.6744 10.4C11.5105 10.3942 11.3523 10.3381 11.2214 10.2395C11.0904 10.1408 10.9929 10.0043 10.9421 9.84834C10.8913 9.69243 10.8896 9.52466 10.9373 9.36777C10.985 9.21087 11.0798 9.07243 11.2088 8.97118L16.5016 4.79518Z" fill="white"/>
</svg>
